<?xml version="1.0" standalone="no"?>
<!DOCTYPE svg PUBLIC "-//W3C//DTD SVG 20010904//EN"
 "http://www.w3.org/TR/2001/REC-SVG-20010904/DTD/svg10.dtd">
<svg version="1.0" xmlns="http://www.w3.org/2000/svg"
 width="1117.000000pt" height="1117.000000pt" viewBox="0 0 1117.000000 1117.000000"
 preserveAspectRatio="xMidYMid meet">
<metadata>
Created by potrace 1.11, written by Peter Selinger 2001-2013
</metadata>
<g transform="translate(0.000000,1117.000000) scale(0.100000,-0.100000)"
fill="#000000" stroke="none">
<path d="M4687 10074 c-1 -1 -56 -5 -122 -9 -165 -10 -229 -16 -325 -30 -14
-2 -45 -7 -70 -10 -823 -110 -1674 -481 -2355 -1029 -100 -80 -131 -107 -253
-221 -117 -109 -253 -248 -357 -366 -24 -27 -112 -137 -209 -259 -192 -243
-445 -677 -580 -995 -22 -49 -45 -104 -52 -121 -41 -94 -148 -406 -170 -494
-2 -8 -15 -58 -29 -110 -25 -96 -78 -348 -91 -430 -3 -25 -8 -52 -9 -60 -1 -8
-6 -40 -10 -70 -3 -30 -8 -66 -10 -80 -11 -75 -25 -229 -30 -335 -7 -113 -7
-455 -1 -515 3 -25 8 -85 11 -135 5 -80 20 -217 30 -284 3 -13 7 -45 10 -70 6
-39 40 -233 50 -281 2 -8 4 -18 4 -21 1 -9 34 -45 111 -124 124 -127 223 -220
424 -396 50 -44 268 -216 315 -249 21 -15 32 -18 29 -9 -107 253 -207 543
-243 706 -64 290 -65 294 -80 401 -3 20 -8 48 -10 62 -9 50 -14 86 -20 145 -3
33 -8 83 -10 110 -16 160 -22 559 -11 655 3 25 8 86 11 135 3 50 7 101 9 115
2 14 7 50 11 80 4 30 9 64 10 75 2 11 7 40 10 65 3 25 8 54 10 65 3 11 7 31 9
45 107 632 412 1327 823 1878 355 476 758 840 1307 1181 88 55 389 211 486
252 41 17 93 39 115 49 198 87 566 199 822 249 136 27 144 29 262 45 252 35
339 41 646 41 316 -1 393 -6 655 -45 165 -25 170 -26 405 -76 63 -13 293 -81
406 -120 406 -139 773 -327 1148 -588 46 -33 91 -65 100 -72 167 -133 243
-195 275 -224 85 -75 192 -179 275 -264 99 -101 88 -90 166 -181 33 -38 62
-72 65 -75 9 -8 111 -139 134 -171 251 -350 386 -587 558 -978 32 -73 104
-270 138 -381 33 -105 105 -384 115 -443 3 -18 8 -39 10 -47 2 -8 6 -31 9 -50
3 -19 7 -44 10 -55 2 -11 7 -42 10 -68 4 -27 9 -56 10 -65 2 -10 6 -44 10 -77
13 -114 13 -114 47 -101 l30 11 -6 70 c-5 62 -13 124 -30 235 -3 19 -15 80
-26 135 -10 55 -21 110 -24 123 -37 195 -131 508 -220 737 -41 102 -55 137
-107 255 -127 286 -366 684 -560 935 -259 335 -584 665 -876 890 -7 6 -18 15
-25 20 -7 6 -46 36 -87 66 -583 430 -1249 723 -1960 863 -69 13 -143 27 -165
30 -23 4 -50 8 -60 10 -11 2 -45 6 -75 10 -30 4 -71 9 -90 11 -19 3 -62 7 -95
10 -33 2 -94 8 -135 11 -66 6 -498 13 -503 8z"/>
<path d="M4130 8055 c-41 -8 -119 -28 -174 -46 -98 -32 -106 -41 -41 -52 17
-3 50 -10 75 -15 25 -6 58 -13 74 -16 97 -17 252 -64 321 -97 139 -66 291
-187 390 -310 28 -33 55 -66 60 -72 27 -31 97 -150 130 -217 45 -96 76 -197
99 -325 14 -83 23 -75 51 45 23 103 29 158 29 275 1 121 -7 186 -35 279 -81
271 -262 451 -536 532 -73 22 -112 27 -228 29 -87 2 -168 -2 -215 -10z"/>
<path d="M5920 7815 c-188 -38 -358 -150 -481 -317 -64 -87 -64 -87 -144 -248
-61 -121 -105 -235 -105 -269 0 -9 30 18 67 59 113 127 250 256 322 304 183
120 379 174 631 175 219 0 347 -32 563 -141 63 -31 63 -30 6 47 -127 173 -337
321 -529 375 -93 25 -242 32 -330 15z"/>
<path d="M3850 7803 c-14 -2 -67 -13 -119 -24 -232 -52 -429 -165 -624 -362
-66 -65 -116 -121 -113 -124 3 -3 43 9 90 25 92 34 217 67 287 77 24 3 51 8
59 10 66 17 308 23 440 10 41 -4 77 -9 80 -10 3 -2 26 -6 50 -10 73 -10 265
-63 348 -96 232 -92 431 -222 608 -395 48 -46 88 -84 89 -84 2 0 -5 30 -15 68
-86 304 -242 548 -455 709 -186 140 -362 203 -580 207 -66 1 -131 1 -145 -1z"/>
<path d="M6227 7444 c-1 -1 -40 -5 -87 -8 -352 -23 -693 -220 -933 -539 -32
-42 -57 -78 -57 -81 0 -2 39 14 88 36 302 140 666 203 1006 174 49 -4 100 -10
115 -12 228 -39 368 -77 534 -148 160 -69 334 -173 451 -270 44 -36 48 -38 42
-16 -20 68 -161 328 -196 360 -3 3 -21 25 -41 50 -162 201 -413 361 -659 419
-72 17 -256 42 -263 35z"/>
<path d="M3847 7274 c-1 -1 -33 -4 -72 -7 -331 -28 -629 -214 -835 -522 -109
-164 -216 -442 -245 -641 -4 -22 -8 -50 -10 -64 -3 -14 -7 -63 -11 -110 l-6
-85 52 80 c273 415 704 718 1195 839 258 64 568 72 851 22 17 -3 82 -19 145
-35 l114 -29 -95 90 c-271 258 -620 429 -928 454 -104 8 -152 11 -155 8z"/>
<path d="M5819 6876 c-2 -2 -29 -6 -60 -9 -31 -4 -76 -11 -100 -16 -24 -5 -55
-12 -69 -15 -123 -23 -472 -157 -455 -175 3 -3 20 -6 38 -7 59 -4 182 -15 207
-18 419 -58 821 -233 1158 -506 324 -262 560 -589 708 -978 24 -64 44 -123 44
-131 0 -39 18 12 29 79 26 167 34 399 18 515 -8 55 -20 137 -22 145 -1 3 -7
31 -14 64 -88 400 -369 761 -722 925 -200 92 -368 128 -610 129 -81 1 -148 0
-150 -2z"/>
<path d="M4927 6363 c-170 -383 -378 -881 -392 -938 -1 -5 -5 -17 -8 -25 -35
-83 -150 -461 -181 -595 -9 -38 -21 -88 -26 -110 -11 -43 -18 -83 -25 -130 -3
-16 -7 -43 -11 -58 -7 -31 -8 -44 -18 -132 -4 -33 -9 -67 -11 -75 -23 -94 -24
-674 -1 -796 2 -11 7 -46 10 -79 22 -200 84 -487 167 -772 l24 -83 417 0 418
0 -26 58 c-14 31 -41 95 -60 142 -19 47 -39 94 -44 105 -25 55 -116 311 -163
460 -43 139 -108 397 -131 525 -2 14 -7 43 -11 65 -4 22 -9 49 -11 60 -2 11
-6 40 -9 65 -3 25 -8 54 -10 65 -2 11 -7 47 -10 80 -3 33 -8 78 -10 100 -24
221 -24 704 -1 930 2 17 7 64 10 105 4 41 9 86 11 100 2 14 9 65 15 115 26
210 106 645 174 945 13 58 23 106 21 108 -1 1 -50 -104 -108 -235z"/>
<path d="M10810 5925 c-179 -67 -336 -127 -350 -133 -14 -5 -77 -29 -140 -52
-63 -23 -131 -48 -150 -56 -19 -7 -64 -24 -100 -37 -59 -21 -411 -153 -615
-229 -44 -17 -94 -37 -112 -44 -17 -8 -38 -14 -46 -14 -9 0 -19 -4 -22 -10 -3
-5 -12 -10 -19 -10 -17 0 -89 -30 -85 -35 4 -3 41 -9 124 -20 28 -4 273 -39
355 -51 87 -12 169 -23 215 -29 28 -4 57 -8 65 -10 8 -2 40 -7 70 -10 30 -3
62 -8 70 -10 8 -2 38 -7 65 -10 28 -3 83 -11 124 -18 81 -13 80 -11 20 -62
-13 -11 -87 -74 -164 -140 -77 -66 -190 -160 -250 -210 -61 -49 -112 -92 -115
-95 -13 -16 -427 -334 -595 -457 -289 -212 -521 -371 -815 -559 -141 -90 -436
-267 -565 -339 -651 -364 -1273 -641 -1855 -827 -209 -66 -546 -157 -700 -188
-25 -5 -56 -12 -70 -15 -43 -9 -184 -36 -205 -40 -11 -1 -49 -7 -85 -13 -67
-11 -143 -21 -195 -27 -16 -2 -50 -6 -75 -9 -184 -24 -322 -31 -620 -31 -244
0 -445 8 -520 19 -14 3 -52 7 -85 11 -80 8 -94 10 -210 29 -99 16 -126 21
-175 31 -14 3 -34 7 -45 9 -173 34 -492 128 -690 203 -247 93 -584 255 -750
360 -11 7 -33 20 -50 29 -139 76 -479 320 -674 483 -63 53 -126 106 -140 117
-42 34 -114 104 -300 287 -187 184 -187 181 -2 -63 53 -69 101 -132 108 -140
585 -729 1121 -1234 1745 -1644 307 -201 654 -383 918 -482 36 -13 74 -28 85
-34 11 -5 82 -29 158 -54 244 -81 581 -157 757 -172 30 -3 61 -7 67 -9 76 -26
728 -26 884 0 13 2 49 6 79 9 30 3 66 8 80 11 13 2 40 7 60 10 20 3 47 8 60
10 14 3 41 8 60 11 236 39 725 188 948 290 29 13 54 24 57 24 16 0 302 139
465 226 385 205 817 500 1230 838 74 60 137 113 140 116 3 3 37 32 75 65 39
33 92 80 119 105 27 25 57 52 66 60 9 8 43 39 76 69 169 154 539 529 734 741
58 63 107 117 110 120 3 3 53 59 110 125 98 113 150 173 244 284 21 25 47 56
57 69 44 52 309 382 355 442 28 36 95 124 149 195 54 72 101 134 106 138 7 9
69 -174 274 -808 54 -165 101 -304 106 -309 5 -6 10 3 10 22 1 18 2 35 3 40 5
17 19 99 22 119 1 12 5 34 8 50 3 15 8 42 10 58 20 125 34 208 42 255 4 19 8
42 9 50 2 15 16 102 21 130 2 8 6 31 9 50 4 19 8 46 10 60 5 35 14 87 25 145
5 28 12 66 15 85 2 19 11 73 19 120 8 47 17 103 20 125 3 22 13 76 21 120 7
44 16 96 19 115 3 19 12 74 21 123 8 48 18 104 21 125 3 20 9 62 14 92 5 30
12 71 15 90 3 19 9 49 14 65 9 35 4 55 -12 54 -7 -1 -158 -56 -337 -124z"/>
</g>
</svg>
