<svg id="07e8dc5b-b193-4647-a930-7af3f3322005" data-name="Layer 1" xmlns="http://www.w3.org/2000/svg" viewBox="0 0 298 333.23"><title>calendar-icon</title><path d="M274.6,35.23h-7.23V11.62C267.37,5.2,262.56,0,256.61,0s-10.76,5.2-10.76,11.62V35.23H213.57V11.62C213.57,5.2,208.75,0,202.8,0S192,5.2,192,11.62V35.23H159.76V11.62C159.76,5.2,154.94,0,149,0s-10.76,5.2-10.76,11.62V35.23H106V11.62C106,5.2,101.14,0,95.19,0S84.43,5.2,84.43,11.62V35.23H52.15V11.62C52.15,5.2,47.33,0,41.39,0S30.62,5.2,30.62,11.62V35.23H23.4A23.4,23.4,0,0,0,0,58.63v29H298v-29A23.4,23.4,0,0,0,274.6,35.23ZM41.66,77.11A16.66,16.66,0,0,1,30.62,48v6.91c0,6.41,4.82,11.62,10.77,11.62s10.76-5.21,10.76-11.62V47.48A16.67,16.67,0,0,1,41.66,77.11Zm53.67,0a16.66,16.66,0,0,1-10.9-29.28v7c0,6.41,4.82,11.62,10.76,11.62S106,61.27,106,54.86V47.58A16.68,16.68,0,0,1,95.33,77.11Zm53.67,0a16.66,16.66,0,0,1-10.76-29.4v7.15c0,6.41,4.82,11.62,10.76,11.62s10.76-5.21,10.76-11.62V47.71A16.66,16.66,0,0,1,149,77.11Zm53.67,0A16.68,16.68,0,0,1,192,47.58v7.28c0,6.41,4.82,11.62,10.76,11.62s10.77-5.21,10.77-11.62v-7a16.66,16.66,0,0,1-10.9,29.28Zm53.67,0a16.67,16.67,0,0,1-10.49-29.63v7.38c0,6.41,4.82,11.62,10.76,11.62s10.76-5.21,10.76-11.62V48a16.66,16.66,0,0,1-11,29.16ZM0,96.18V309.83a23.4,23.4,0,0,0,23.4,23.4H274.6a23.4,23.4,0,0,0,23.4-23.4V96.18ZM271.91,290.7c0,8.92-8.64,16.15-19.3,16.15H45.39c-10.66,0-19.31-7.23-19.31-16.15V121.82H271.91ZM250.48,143.07H216.8v33.69h33.68ZM82.05,251.91H48.36v33.68H82.05Zm168.43-55.28H216.8v33.68h33.68ZM138.19,143.07H104.5v33.69h33.69Zm56.15,108.84H160.65v33.68h33.69Zm-56.15-55.28H104.5v33.68h33.69Zm56.15,0H160.65v33.68h33.69Zm-56.15,55.28H104.5v33.68h33.69Zm56.15-108.84H160.65v33.69h33.69Z"/><rect x="48.36" y="196.63" width="33.69" height="33.69" style="fill:red"/></svg>