<?xml version="1.0" encoding="utf-8"?>
<!-- Generator: Adobe Illustrator 22.1.0, SVG Export Plug-In . SVG Version: 6.00 Build 0)  -->
<!DOCTYPE svg PUBLIC "-//W3C//DTD SVG 1.1//EN" "http://www.w3.org/Graphics/SVG/1.1/DTD/svg11.dtd">
<svg version="1.1" id="Layer_1" xmlns="http://www.w3.org/2000/svg" xmlns:xlink="http://www.w3.org/1999/xlink" x="0px" y="0px"
	 viewBox="0 0 137.7 158.1" style="enable-background:new 0 0 137.7 158.1;" xml:space="preserve">
<style type="text/css">
	.st0{fill:#123377;}
	.st1{fill:#0B70B5;}
	.st2{fill:#FFFFFF;}
</style>
<path class="st0" d="M122.1,45.7l5.1-5.1l0.7,0.7c1.5,1.5,4,1.5,5.6,0c1.5-1.5,1.5-4,0-5.6l-9.7-9.7c-1.5-1.5-4-1.5-5.6,0
	c-1.5,1.5-1.5,4,0,5.6l1.6,1.6l-4.9,4.9C104.7,29,91.8,22.8,77.6,21v-7.9h2.7c3.6,0,6.5-2.9,6.5-6.5c0-3.6-2.9-6.5-6.5-6.5H57.4
	c-3.6,0-6.5,2.9-6.5,6.5c0,3.6,2.9,6.5,6.5,6.5h2.7V21C26.2,25.3,0,54.2,0,89.3c0,38,30.8,68.8,68.8,68.8c38,0,68.8-30.8,68.8-68.8
	C137.7,72.7,131.8,57.5,122.1,45.7z"/>
<g>
	<path class="st1" d="M56.4,92.8c-1.8,0-3,2.5-3,6.1c0,3.8,1.4,6.2,3.2,6.2c1.8,0,3-2.4,3-6C59.6,95.6,58.6,92.8,56.4,92.8z"/>
	<path class="st1" d="M46.3,80.9c1.2,0,2-1.6,2-4.1c0-2.4-0.6-4.3-2.2-4.3c-1.2,0-2,1.7-2,4.1C44.1,79.2,45.1,80.9,46.3,80.9z"/>
	<path class="st1" d="M121.7,92.6c-1.1,0-2-0.9-2-2v-2.7c0-1.1,0.9-2,2-2h4.6c-0.8-13.3-6.1-25.4-14.5-34.8l-3.2,3.2
		c-0.8,0.8-2.1,0.8-2.9,0l-1.9-1.9c-0.8-0.8-0.8-2.1,0-2.9l3.2-3.2c-9.4-8.3-21.5-13.6-34.8-14.4v4.5c0,1.1-0.9,2-2,2h-2.7
		c-1.1,0-2-0.9-2-2v-4.5C52.1,32.6,40,37.9,30.7,46.2l3.2,3.2c0.8,0.8,0.8,2.1,0,2.9l-1.9,1.9c-0.8,0.8-2.1,0.8-2.9,0L25.8,51
		c-8.3,9.4-13.7,21.4-14.5,34.8H16c1.1,0,2,0.9,2,2v2.7c0,1.1-0.9,2-2,2h-4.6c0.8,13.4,6.1,25.5,14.4,34.9l3.3-3.3
		c0.8-0.8,2.1-0.8,2.9,0l1.9,1.9c0.8,0.8,0.8,2.1,0,2.9l-3.3,3.3c9.4,8.4,21.5,13.7,34.9,14.5V142c0-1.1,0.9-2,2-2h2.7
		c1.1,0,2,0.9,2,2v4.8c13.4-0.8,25.5-6.1,34.9-14.5l-3.3-3.3c-0.8-0.8-0.8-2.1,0-2.9l1.9-1.9c0.8-0.8,2.1-0.8,2.9,0l3.3,3.3
		c8.3-9.4,13.6-21.5,14.4-34.9H121.7z"/>
	<path class="st1" d="M77.9,92.8c-1.8,0-3,2.5-3,6.1c0,3.8,1.4,6.2,3.2,6.2c1.8,0,3-2.4,3-6C81.1,95.6,80.2,92.8,77.9,92.8z"/>
</g>
<g>
	<path class="st2" d="M41.9,75.2l-2.7,3.2c-0.8-1.1-2.1-1.9-3.2-1.9c-1.7,0-2.9,1.3-2.9,3.2c0,1.9,1.2,3.2,2.9,3.2
		c1,0,2.3-0.6,3.2-1.6l2.7,2.9c-1.6,1.7-3.9,2.8-6.1,2.8c-4.3,0-7.4-3.1-7.4-7.2c0-4.1,3.2-7.1,7.6-7.1
		C38.1,72.6,40.4,73.6,41.9,75.2z"/>
	<path class="st2" d="M57.1,79.8c0,4.2-3.2,7.2-7.7,7.2c-4.5,0-7.7-3-7.7-7.2c0-4.2,3.2-7.1,7.7-7.1C53.9,72.6,57.1,75.6,57.1,79.8z
		 M46.5,79.8c0,1.9,1.4,3.3,3,3.3c1.6,0,2.9-1.4,2.9-3.3s-1.3-3.3-2.9-3.3C47.9,76.5,46.5,77.9,46.5,79.8z"/>
	<path class="st2" d="M70.1,86.8v-7.7l-2.4,6.3h-3l-2.4-6.3v7.7h-4v-14h4.9l3.1,7.3l3.1-7.3h4.9v14H70.1z"/>
	<path class="st2" d="M75.9,86.8v-14h4.6v14H75.9z"/>
	<path class="st2" d="M92.1,86.8l-5.5-7.2v7.2h-4.2v-14h3.9l5.5,7.2v-7.2H96v14H92.1z"/>
	<path class="st2" d="M110.8,79.4v5.8c-1.6,1-4.1,1.8-6.1,1.8c-4.4,0-7.6-3-7.6-7.2c0-4.1,3.3-7.2,7.9-7.2c2.2,0,4.6,0.8,6.1,2.2
		l-2.6,3.2c-0.9-0.9-2.3-1.5-3.5-1.5c-1.8,0-3.1,1.4-3.1,3.3c0,1.9,1.3,3.3,3.2,3.3c0.5,0,1.2-0.2,1.8-0.5v-3.3H110.8z"/>
	<path class="st2" d="M52.8,91.2l-1.7,3.5c-1.4-0.8-3.6-1.6-4.8-1.6c-0.5,0-0.9,0.2-0.9,0.6c0,1.8,7.3,0.7,7.3,5.7
		c0,3.1-2.7,4.5-5.9,4.5c-2.4,0-5.2-0.8-7-2.2l1.7-3.5c1.4,1.2,3.9,2.2,5.3,2.2c0.7,0,1.1-0.2,1.1-0.7c0-1.8-7.3-0.6-7.3-5.5
		c0-2.8,2.4-4.6,6-4.6C49,89.6,51.3,90.2,52.8,91.2z"/>
	<path class="st2" d="M68.4,96.8c0,4.2-3.2,7.2-7.7,7.2c-4.5,0-7.7-3-7.7-7.2c0-4.2,3.2-7.1,7.7-7.1C65.2,89.6,68.4,92.6,68.4,96.8z
		 M57.8,96.8c0,1.9,1.4,3.3,3,3.3c1.6,0,2.9-1.4,2.9-3.3s-1.3-3.3-2.9-3.3C59.2,93.5,57.8,94.9,57.8,96.8z"/>
	<path class="st2" d="M84.2,96.8c0,4.2-3.2,7.2-7.7,7.2c-4.5,0-7.7-3-7.7-7.2c0-4.2,3.2-7.1,7.7-7.1C81,89.6,84.2,92.6,84.2,96.8z
		 M73.6,96.8c0,1.9,1.4,3.3,3,3.3c1.6,0,2.9-1.4,2.9-3.3s-1.3-3.3-2.9-3.3C75,93.5,73.6,94.9,73.6,96.8z"/>
	<path class="st2" d="M95.1,103.8l-5.5-7.2v7.2h-4.2v-14h3.9l5.5,7.2v-7.2H99v14H95.1z"/>
</g>
<g>
</g>
<g>
</g>
<g>
</g>
<g>
</g>
<g>
</g>
<g>
</g>
<g>
</g>
<g>
</g>
<g>
</g>
<g>
</g>
<g>
</g>
<g>
</g>
<g>
</g>
<g>
</g>
<g>
</g>
</svg>
