<svg xmlns="http://www.w3.org/2000/svg" xmlns:xlink="http://www.w3.org/1999/xlink" viewBox="0 0 1313.92 544.65"><defs><linearGradient id="3ed168ba-84dc-43cf-954c-699022110968" x1="14.4" y1="227.96" x2="470.32" y2="227.96" gradientUnits="userSpaceOnUse"><stop offset="0" stop-color="#8cc63f"/><stop offset="0.99" stop-color="#39d34a"/></linearGradient><linearGradient id="5f5bd3ab-8a6a-48b8-bce4-6e93a49be0e9" x1="99.35" y1="177.84" x2="519.09" y2="177.84" xlink:href="#3ed168ba-84dc-43cf-954c-699022110968"/></defs><title>excusion-selected</title><g style="isolation:isolate"><g id="67d675cc-a063-42b5-827a-185d9cedbe54" data-name="Layer 1"><path d="M440.18,114.61C426.5,129.37,412.93,145,399.7,161c9.84,18.4,16.1,38.18,13.63,67-8.09,94.07-76.55,171-171,171q-5,0-9.85-.29l-1.24-.07A171,171,0,0,1,71.39,228a173.38,173.38,0,0,1,1.11-19.45A171,171,0,0,1,338.17,86.34C352.77,73.68,368,61.1,383.66,49.07A227,227,0,0,0,242.36,0c-125.9,0-228,102.06-228,228s102.06,228,228,228,228-102.06,228-227.95A226.89,226.89,0,0,0,440.18,114.61Z" style="fill:url(#3ed168ba-84dc-43cf-954c-699022110968)"/><path d="M492.66,30.94l26.43-19.67L515.1.72c-129.72,48.85-291,236-291,236L170,148.85,99.35,200,228.79,355S347.47,162,460.83,56.86C473,46.57,483.77,37.88,492.66,30.94Z" style="fill:url(#5f5bd3ab-8a6a-48b8-bce4-6e93a49be0e9)"/><g style="mix-blend-mode:multiply"><ellipse cx="256.49" cy="512.63" rx="256.49" ry="32.03" style="fill:#fff"/><ellipse cx="256.49" cy="512.63" rx="252.1" ry="31.48" style="fill:#fefefe"/><ellipse cx="256.49" cy="512.63" rx="247.71" ry="30.93" style="fill:#fdfdfd"/><ellipse cx="256.49" cy="512.63" rx="243.33" ry="30.38" style="fill:#fcfcfc"/><ellipse cx="256.49" cy="512.63" rx="238.94" ry="29.84" style="fill:#fbfbfb"/><ellipse cx="256.49" cy="512.63" rx="234.55" ry="29.29" style="fill:#fafafa"/><ellipse cx="256.49" cy="512.63" rx="230.17" ry="28.74" style="fill:#f9f9f9"/><ellipse cx="256.49" cy="512.63" rx="225.78" ry="28.19" style="fill:#f8f8f9"/><ellipse cx="256.49" cy="512.63" rx="221.4" ry="27.65" style="fill:#f7f7f8"/><ellipse cx="256.49" cy="512.63" rx="217.01" ry="27.1" style="fill:#f6f7f7"/><ellipse cx="256.49" cy="512.63" rx="212.62" ry="26.55" style="fill:#f5f6f6"/><ellipse cx="256.49" cy="512.63" rx="208.24" ry="26" style="fill:#f4f5f5"/><ellipse cx="256.49" cy="512.63" rx="203.85" ry="25.45" style="fill:#f3f4f4"/><ellipse cx="256.49" cy="512.63" rx="199.46" ry="24.91" style="fill:#f2f3f3"/><ellipse cx="256.49" cy="512.63" rx="195.08" ry="24.36" style="fill:#f1f2f2"/><ellipse cx="256.49" cy="512.63" rx="190.69" ry="23.81" style="fill:#f0f1f1"/><ellipse cx="256.49" cy="512.63" rx="186.31" ry="23.26" style="fill:#eff0f0"/><ellipse cx="256.49" cy="512.63" rx="181.92" ry="22.72" style="fill:#eeefef"/><ellipse cx="256.49" cy="512.63" rx="177.53" ry="22.17" style="fill:#edeeee"/><ellipse cx="256.49" cy="512.63" rx="173.15" ry="21.62" style="fill:#ecedee"/><ellipse cx="256.49" cy="512.63" rx="168.76" ry="21.07" style="fill:#ebeced"/><ellipse cx="256.49" cy="512.63" rx="164.37" ry="20.53" style="fill:#eaebec"/><ellipse cx="256.49" cy="512.63" rx="159.99" ry="19.98" style="fill:#e9eaeb"/><ellipse cx="256.49" cy="512.63" rx="155.6" ry="19.43" style="fill:#e8e9ea"/><ellipse cx="256.49" cy="512.63" rx="151.22" ry="18.88" style="fill:#e8e9e9"/><ellipse cx="256.49" cy="512.63" rx="146.83" ry="18.33" style="fill:#e7e8e8"/><ellipse cx="256.49" cy="512.63" rx="142.44" ry="17.79" style="fill:#e6e7e7"/><ellipse cx="256.49" cy="512.63" rx="138.06" ry="17.24" style="fill:#e5e6e6"/><ellipse cx="256.49" cy="512.63" rx="133.67" ry="16.69" style="fill:#e4e5e5"/><ellipse cx="256.49" cy="512.63" rx="129.29" ry="16.14" style="fill:#e3e4e4"/><ellipse cx="256.49" cy="512.63" rx="124.9" ry="15.6" style="fill:#e2e3e4"/><ellipse cx="256.49" cy="512.63" rx="120.51" ry="15.05" style="fill:#e1e2e3"/><ellipse cx="256.49" cy="512.63" rx="116.13" ry="14.5" style="fill:#e0e1e2"/><ellipse cx="256.49" cy="512.63" rx="111.74" ry="13.95" style="fill:#dfe0e1"/><ellipse cx="256.49" cy="512.63" rx="107.35" ry="13.41" style="fill:#dedfe0"/><ellipse cx="256.49" cy="512.63" rx="102.97" ry="12.86" style="fill:#dddedf"/><ellipse cx="256.49" cy="512.63" rx="98.58" ry="12.31" style="fill:#dcddde"/><ellipse cx="256.49" cy="512.63" rx="94.2" ry="11.76" style="fill:#dbdcdd"/><ellipse cx="256.49" cy="512.63" rx="89.81" ry="11.21" style="fill:#dadbdc"/><ellipse cx="256.49" cy="512.63" rx="85.42" ry="10.67" style="fill:#d9dadb"/><ellipse cx="256.49" cy="512.63" rx="81.04" ry="10.12" style="fill:#d8dada"/><ellipse cx="256.49" cy="512.63" rx="76.65" ry="9.57" style="fill:#d7d9d9"/><ellipse cx="256.49" cy="512.63" rx="72.26" ry="9.02" style="fill:#d6d8d9"/><ellipse cx="256.49" cy="512.63" rx="67.88" ry="8.48" style="fill:#d5d7d8"/><ellipse cx="256.49" cy="512.63" rx="63.49" ry="7.93" style="fill:#d4d6d7"/><ellipse cx="256.49" cy="512.63" rx="59.11" ry="7.38" style="fill:#d3d5d6"/><ellipse cx="256.49" cy="512.63" rx="54.72" ry="6.83" style="fill:#d2d4d5"/><ellipse cx="256.49" cy="512.63" rx="50.33" ry="6.29" style="fill:#d1d3d4"/><ellipse cx="256.49" cy="512.63" rx="45.95" ry="5.74" style="fill:#d0d2d3"/></g><path d="M593,50v98.78h-6.3V50H551.31V43.82h77.16V50Z"/><path d="M705.64,101v47.74h-6.31V102.21c0-16.06-9.46-25.52-25.52-25.52-19.36.45-30.62,13.37-30.62,33.78v38.28h-6.31V37.36h6.31V91c5.25-13.21,16.36-20.27,32.12-20.57C694.38,70.39,705.64,82,705.64,101Z"/><path d="M742.72,48a5.26,5.26,0,1,1-5.26-5.4A5.4,5.4,0,0,1,742.72,48Zm-8.41,100.73V70.54h6.15v78.21Z"/><path d="M812.67,76.54,810,81.65a37,37,0,0,0-19.82-5.56c-10.95,0-19.51,4.21-19.51,13.51,0,21,45.63,10.66,45.63,38.28,0,14.57-13.06,21-27.17,21-11,0-21.46-3.9-28.67-10.81l2.85-4.8a38.44,38.44,0,0,0,26.12,9.91c11,0,20.42-4.36,20.87-14.27.6-22.06-45.64-12-45.64-38.87,0-13.67,11.86-19.67,25.67-19.67A42.49,42.49,0,0,1,812.67,76.54Z"/><path d="M573.83,180v41.89h54.64v6.3H573.83V272.6h63.35v6.15H567.52V173.82h67.71V180Z"/><path d="M708.48,200.54h7.06l-27.32,37.83,29.27,40.38h-7.2l-26.12-35.58L657.9,278.75h-7.21l29.57-40.38-27.32-37.83h7.21l24.17,33.18Z"/><path d="M792.25,211.35l-3.6,4.5a34.7,34.7,0,0,0-24.17-9.46c-18.76,0-32.27,13.67-32.27,33.18,0,19.82,13.51,33.48,32.27,33.48,10.51,0,19.52-3.91,25.52-11l3.76,4.05c-6.91,8.11-17.27,12.76-29.43,12.76-22.07,0-38.28-16.21-38.28-39.18s16.21-39.33,38.28-39.33C775.59,200.39,785.35,204.44,792.25,211.35Z"/><path d="M883.22,278.75h-6.15V257.88c-5,13.51-15.91,20.87-31.37,21-18.92,0-29.88-11.41-29.88-30.62V200.54H822v46.54c0,16.06,9.31,25.52,25.07,25.52,18.91-.45,30-13.36,30-33.78V200.54h6.15Z"/><path d="M920.91,220.21c5-12.61,15.16-19.52,29.12-19.82v6.45c-17.26,0-27.77,11.41-29.12,29.58v42.33H914.6V200.54h6.31Z"/><path d="M1008,206.54l-2.7,5.11a37,37,0,0,0-19.81-5.56c-11,0-19.52,4.21-19.52,13.51,0,21,45.64,10.66,45.64,38.28,0,14.57-13.06,21-27.17,21-11,0-21.47-3.9-28.68-10.81l2.86-4.8a38.41,38.41,0,0,0,26.12,9.91c11,0,20.41-4.36,20.86-14.27.6-22.06-45.63-12-45.63-38.87,0-13.67,11.86-19.67,25.67-19.67A42.48,42.48,0,0,1,1008,206.54Z"/><path d="M1041.15,178a5.26,5.26,0,1,1-5.25-5.4A5.39,5.39,0,0,1,1041.15,178Zm-8.4,100.73V200.54h6.15v78.21Z"/><path d="M1139,239.57c0,23.12-16.21,39.33-38.58,39.33s-38.58-16.21-38.58-39.33c0-22.82,16.36-39.18,38.58-39.18S1139,216.75,1139,239.57Zm-71,.15c0,19.67,13.66,33.33,32.43,33.33s32.42-13.66,32.42-33.33-13.51-33.33-32.42-33.33S1068,220.06,1068,239.72Z"/><path d="M1230.45,231v47.74h-6.3V232.21c0-16.06-9.46-25.52-25.52-25.52-18,.45-29.13,11.71-30.48,29.73v42.33h-6.3V200.54h6.3v20c5.26-12.91,16.37-19.82,32-20.12C1219.19,200.39,1230.45,212,1230.45,231Z"/><path d="M573.53,308a5.26,5.26,0,1,1-5.25-5.4A5.39,5.39,0,0,1,573.53,308Zm-8.41,100.73V330.54h6.16v78.21Z"/><path d="M643.48,336.55l-2.7,5.1A37,37,0,0,0,621,336.09c-11,0-19.52,4.21-19.52,13.51,0,21,45.64,10.66,45.64,38.28,0,14.57-13.06,21-27.17,21-11,0-21.47-3.9-28.68-10.81l2.86-4.8a38.41,38.41,0,0,0,26.12,9.91c11,0,20.41-4.36,20.86-14.27.6-22.06-45.63-12-45.63-38.87,0-13.67,11.86-19.67,25.67-19.67A42.39,42.39,0,0,1,643.48,336.55Z"/><path d="M772.29,312.08l-2.86,5.7c-7.8-5.1-18.46-7.66-27.47-7.66-16.66,0-27.47,6.91-27.47,17.87,0,32,61.7,15.46,61.4,54.19,0,16.21-14.56,26.72-36.48,26.72A55.3,55.3,0,0,1,702,393.74l3.3-5.56c8.56,8.86,21.92,14.27,34.23,14.27,18,0,29.57-7.81,29.57-20.12.3-32.88-61.39-16.06-61.39-53.89,0-15.16,13.81-24.92,34.52-24.92C752.92,303.52,764.48,307,772.29,312.08Z"/><path d="M867.91,371.37h-68.3c.9,19.07,14.11,31.83,32.28,31.83,10.65,0,20.11-3.91,26.41-10.81l3.61,4.05c-7.21,7.81-17.87,12.46-30.33,12.46-22.06,0-38.12-16.21-38.12-39.18s16.06-39.33,38.12-39.33C854.55,330.39,868.36,347.2,867.91,371.37Zm-5.7-5.55c-1.2-17.72-12.76-29.73-30.63-29.73-17.56,0-30.32,12-31.82,29.73Z"/><path d="M891,408.75V297.36h6.31V408.75Z"/><path d="M995.36,371.37h-68.3c.9,19.07,14.11,31.83,32.28,31.83,10.65,0,20.11-3.91,26.42-10.81l3.6,4.05c-7.21,7.81-17.86,12.46-30.32,12.46-22.07,0-38.13-16.21-38.13-39.18S937,330.39,959,330.39C982,330.39,995.81,347.2,995.36,371.37Zm-5.7-5.55c-1.2-17.72-12.76-29.73-30.62-29.73-17.57,0-30.33,12-31.83,29.73Z"/><path d="M1075.53,341.35l-3.61,4.5a34.69,34.69,0,0,0-24.16-9.46c-18.77,0-32.28,13.67-32.28,33.18,0,19.82,13.51,33.48,32.28,33.48,10.5,0,19.51-3.91,25.52-11l3.75,4.05c-6.91,8.11-17.27,12.76-29.42,12.76-22.07,0-38.28-16.21-38.28-39.18s16.21-39.33,38.28-39.33C1058.86,330.39,1068.62,334.44,1075.53,341.35Z"/><path d="M1138.43,403.35a28.67,28.67,0,0,1-16.37,5.55c-11.1.15-17.71-7-17.71-21.77V337.9h-11.41v-5.41h11.41V313.13h6v19.36h26.57v5.41h-26.57v48.48c0,11.11,4.35,16.52,12.46,16.37a23.39,23.39,0,0,0,13.21-4.51Z"/><path d="M1222.2,371.37h-68.31c.9,19.07,14.11,31.83,32.28,31.83,10.66,0,20.11-3.91,26.42-10.81l3.6,4.05c-7.2,7.81-17.86,12.46-30.32,12.46-22.07,0-38.13-16.21-38.13-39.18s16.06-39.33,38.13-39.33C1208.84,330.39,1222.65,347.2,1222.2,371.37Zm-5.71-5.55c-1.2-17.72-12.76-29.73-30.62-29.73-17.57,0-30.33,12-31.83,29.73Z"/><path d="M1313.92,408.75h-6.31V388.33c-5.85,12.91-18,20.87-33.32,20.87-22.22,0-38.13-16.51-38.13-39.48,0-23.12,15.91-39.63,38-39.63,15.46,0,27.62,8,33.47,20.87v-53.6h6.31Zm-6.31-39c0-19.51-13.66-33.63-32.57-33.63s-32.58,14.27-32.73,33.63c.15,19.51,13.66,33.63,32.73,33.63C1294,403.35,1307.61,389.23,1307.61,369.72Z"/></g></g></svg>