<svg id="a31e05a1-cab6-4f62-8215-31272d010895" data-name="Layer 1" xmlns="http://www.w3.org/2000/svg" viewBox="0 0 1433.97 273.4"><title>guest-04</title><rect width="273.4" height="273.4" rx="25.42" ry="25.42" style="fill:#123377"/><path d="M111.2,347.49c-19.32-61.79-3.07-98,22.3-154.51-14,60.18-15,100.58,9.42,154.51C114.87,347.47,126.78,347.49,111.2,347.49Z" transform="translate(0 -99.84)" style="fill:#fff"/><path d="M219.86,254.23a100.39,100.39,0,0,0-7.16-16.78,90.31,90.31,0,0,0-57.9-43.9,100.47,100.47,0,0,0-18.1-2.35s1.87-1.09,5.35-2.61A71.62,71.62,0,0,1,156.88,184a61.41,61.41,0,0,1,21.41-.48,49.19,49.19,0,0,1,37.78,28.63,61.58,61.58,0,0,1,5.32,20.75,71.76,71.76,0,0,1-.46,15.53C220.41,252.14,219.85,254.2,219.86,254.23Z" transform="translate(0 -99.84)" style="fill:#fff"/><path d="M132.64,188.73a92,92,0,0,0-16.77-3.45,76.71,76.71,0,0,0-62.54,23.14A92,92,0,0,0,42.84,222s0-2.14.47-5.83a71.48,71.48,0,0,1,3.37-14.74,57.52,57.52,0,0,1,9.81-17.84,41.9,41.9,0,0,1,40.79-15.09,57.62,57.62,0,0,1,19.06,7.15,72,72,0,0,1,12.15,9C131.23,187.12,132.61,188.73,132.64,188.73Z" transform="translate(0 -99.84)" style="fill:#fff"/><path d="M133.65,185.14a77.19,77.19,0,0,0-10.37-9.49,67.43,67.43,0,0,0-26-12,67.64,67.64,0,0,0-28.64-.55,78.17,78.17,0,0,0-13.47,4s1-1.35,2.92-3.51a55.9,55.9,0,0,1,9-7.91,47.5,47.5,0,0,1,14.9-7.07,38.22,38.22,0,0,1,35.67,8.15,47.53,47.53,0,0,1,10.35,12.85,54.92,54.92,0,0,1,4.62,11A45,45,0,0,1,133.65,185.14Z" transform="translate(0 -99.84)" style="fill:#fff"/><path d="M223.35,194.83a86,86,0,0,0-12.24-8.35,80,80,0,0,0-59.67-6.64,85.58,85.58,0,0,0-13.78,5.45s.85-1.44,2.65-3.8a55.28,55.28,0,0,1,8.48-8.82,50.5,50.5,0,0,1,14.9-8.62,43.42,43.42,0,0,1,38.93,4.34,50.3,50.3,0,0,1,12.65,11.68,55.09,55.09,0,0,1,6.33,10.47C222.84,193.23,223.33,194.82,223.35,194.83Z" transform="translate(0 -99.84)" style="fill:#fff"/><path d="M134.92,184.5a70.85,70.85,0,0,0-2.57-11.12,49.85,49.85,0,0,0-13.13-19.58,39.52,39.52,0,0,0-19.8-10.44c-6.37-1.31-11.1-2.3-11-2.4s1.24-.59,3.5-1.35a46,46,0,0,1,9.53-2.11,37.61,37.61,0,0,1,13.26.81,28.93,28.93,0,0,1,21.12,19.78,37.94,37.94,0,0,1,1.68,13.18,45.21,45.21,0,0,1-1.49,9.64C135.42,183.22,134.91,184.48,134.92,184.5Z" transform="translate(0 -99.84)" style="fill:#fff"/><path d="M202,164.71a68.73,68.73,0,0,0-10.22-4.57,47.24,47.24,0,0,0-22.9-1.12,37.56,37.56,0,0,0-19.54,9.66c-4.68,4.33-10.19,10.94-10.21,10.79s.25-1.34.94-3.61a101.51,101.51,0,0,1,5.81-12.31,37.26,37.26,0,0,1,8.23-10.15,27.44,27.44,0,0,1,27.64-5.16,37,37,0,0,1,11.33,6.5,45.27,45.27,0,0,1,6.74,6.94A36.43,36.43,0,0,1,202,164.71Z" transform="translate(0 -99.84)" style="fill:#fff"/><path d="M519,240.51v71c-19.53,14.26-49.37,24-75,24-56,0-98.47-40.66-98.47-94.25,0-53.33,43.3-93.72,100.85-93.72,27.46,0,55.44,10.56,74.19,26.92l-23.5,29.84c-13.73-12.68-32.74-20.6-50.69-20.6-32.74,0-58.08,25.09-58.08,57.56,0,32.74,25.61,57.82,58.34,57.82,11.09,0,24.29-4,36.17-10V240.51Z" transform="translate(0 -99.84)" style="fill:#0b70b5"/><path d="M689.52,333.7H649.13V308.62c-9.77,17.95-26.14,26.66-47.52,26.66-31.42,0-51.22-20.85-51.22-54.38V191.66h40.66v77.62c0,18,10.3,28.78,26.66,28.78,19.54-.26,31.42-15.58,31.42-36.17V191.66h40.39Z" transform="translate(0 -99.84)" style="fill:#0b70b5"/><path d="M859.54,275.09H757.63c4.75,18,18.48,28.51,36.7,28.51a50.38,50.38,0,0,0,35.9-15l21.39,21.64C837.36,326,816.5,335.28,790.9,335.28c-45.41,0-74.19-29-74.19-72.07,0-43.82,29.83-72.87,73.13-72.87C839.74,190.34,863,223.35,859.54,275.09Zm-38-24c-.53-18.75-12.67-30.89-31.42-30.89-18,0-30.09,12.14-33.26,30.89Z" transform="translate(0 -99.84)" style="fill:#0b70b5"/><path d="M990,205.66l-14,27.72c-15.58-8.71-31.42-13.73-43.3-13.73-9.51,0-16.37,3.17-16.37,10.56,0,21.38,75,10.56,74.71,60.72,0,29-25.6,44.35-57.81,44.35-23,0-45.41-6.86-61.52-19.8L884.87,288c14.79,11.35,33.8,17.69,49.37,17.69,10.3,0,18-3.44,18-11.09,0-22.71-73.66-10.56-73.66-60.46,0-29.31,25.08-44.35,56-44.35A105.87,105.87,0,0,1,990,205.66Z" transform="translate(0 -99.84)" style="fill:#0b70b5"/><path d="M1106.11,325.78a75.65,75.65,0,0,1-37,9.77c-25.35,0-44.62-14.52-44.62-43.83V226h-19.8V198h19.8V158.93h40.39V198h38.55v28.25h-38.55v58.61c0,11.88,5,16.63,13.73,16.37,5.28,0,11.62-1.85,19-5.28Z" transform="translate(0 -99.84)" style="fill:#0b70b5"/><path d="M1258.47,204.08h20.78l-1.85,17.08h-21.08l-3.08,24.63h-17.09l3.08-24.63h-23.39l-3.08,24.63h-17.24l3.08-24.63h-20.93l1.84-17.08h21.24l2.77-23.24h-20.78l1.85-17.09h21.09l3.23-25.7H1226l-3.23,25.7h23.4l3.23-25.7h17.24l-3.23,25.7h20.93l-1.69,17.09h-21.4Zm-37.71-23.24-2.92,23.24h23.39l2.93-23.24Z" transform="translate(0 -99.84)" style="fill:#0b70b5"/><path d="M1434,294.64h-22.69V333.7h-38.93V294.64h-80.44V266.93l82.63-121.69h36.74V263.7H1434Zm-61.62-30.94v-32q0-8,.65-23.21t1-17.66h-1a144,144,0,0,1-11.48,20.63L1327,263.7Z" transform="translate(0 -99.84)" style="fill:#0b70b5"/></svg>