<svg xmlns="http://www.w3.org/2000/svg" xmlns:xlink="http://www.w3.org/1999/xlink" viewBox="0 0 634.67 188.2"><defs><style>.cls-1{fill:#fff;}.cls-2{opacity:0.25;}.cls-3{fill:#e30613;}.cls-4{opacity:0.4;}.cls-5{fill:#fafafa;}.cls-6{fill:#f5f5f5;}.cls-7{fill:#f0f0f0;}.cls-8{fill:#ebebeb;}.cls-9{fill:#e6e6e6;}.cls-10{fill:#e1e1e1;}.cls-11{fill:#dcdcdc;}.cls-12{fill:#d7d7d7;}.cls-13{fill:#d2d2d2;}.cls-14{fill:#cdcdcd;}.cls-15{fill:#c8c8c8;}.cls-16{fill:#c3c3c3;}.cls-17{fill:#bebebe;}.cls-18{fill:#b9b9b9;}.cls-19{fill:#b4b4b4;}.cls-20{fill:#afafaf;}.cls-21{fill:#aaa;}.cls-22{fill:#a5a5a5;}.cls-23{fill:#a0a0a0;}.cls-24{fill:#9b9b9b;}.cls-25{fill:#969696;}.cls-26{fill:#919191;}.cls-27{fill:#8c8c8c;}.cls-28{fill:#878787;}.cls-29{fill:#828282;}.cls-30{fill:#7d7d7d;}.cls-31{fill:#787878;}.cls-32{fill:#737373;}.cls-33{fill:#6e6e6e;}.cls-34{fill:#696969;}.cls-35{fill:#646464;}.cls-36{fill:#5f5f5f;}.cls-37{fill:#5a5a5a;}.cls-38{fill:#555;}.cls-39{fill:#505050;}.cls-40{fill:#4b4b4b;}.cls-41{fill:#464646;}.cls-42{fill:#414141;}.cls-43{fill:#3c3c3c;}.cls-44{fill:#373737;}.cls-45{fill:#323232;}.cls-46{fill:#2d2d2d;}.cls-47{fill:#282828;}.cls-48{fill:#232323;}.cls-49{fill:#1e1e1e;}.cls-50{fill:#191919;}.cls-51{fill:#141414;}.cls-52{fill:#0f0f0f;}.cls-53{fill:#0a0a0a;}.cls-54{fill:#050505;}.cls-55{fill:url(#linear-gradient);}</style><linearGradient id="linear-gradient" x1="28.39" y1="95.91" x2="160.53" y2="95.91" gradientTransform="matrix(1, 0, 0, -1, 0, 190)" gradientUnits="userSpaceOnUse"><stop offset="0" stop-color="#c9c8c8"/><stop offset="0.06" stop-color="#d9d8d8"/><stop offset="0.13" stop-color="#e3e3e3"/><stop offset="0.21" stop-color="#e6e6e6"/><stop offset="0.29" stop-color="#ededed"/><stop offset="0.55" stop-color="#fff"/><stop offset="1" stop-color="#fff"/></linearGradient></defs><title>locked-plus-level-white</title><g id="Layer_2" data-name="Layer 2"><path class="cls-1" d="M220.38,157.4V108.5h15.85q9,0,11.74.74a12.84,12.84,0,0,1,7,4.78,15.21,15.21,0,0,1,2.83,9.53,16,16,0,0,1-1.63,7.57,13.4,13.4,0,0,1-4.16,4.82,14.2,14.2,0,0,1-5.12,2.32,57,57,0,0,1-10.24.7h-6.43V157.4Zm9.88-40.62v13.87h5.4c3.89,0,6.49-.25,7.81-.77a6.44,6.44,0,0,0,3.08-2.4,6.52,6.52,0,0,0,1.12-3.8,6.28,6.28,0,0,0-1.57-4.4,6.8,6.8,0,0,0-4-2.17,48,48,0,0,0-7.1-.33Z"/><path class="cls-1" d="M266.21,157.4V108.9h9.88v40.26h24.55v8.24Z"/><path class="cls-1" d="M307.61,108.5h9.87V135a55.39,55.39,0,0,0,.37,8.17,7.91,7.91,0,0,0,3,4.82,10.52,10.52,0,0,0,6.52,1.82q4.2,0,6.34-1.72a6.79,6.79,0,0,0,2.57-4.22,55.1,55.1,0,0,0,.43-8.31V108.5h9.87v25.69q0,8.81-.8,12.44a13.71,13.71,0,0,1-2.95,6.14,15,15,0,0,1-5.75,4,25,25,0,0,1-9.41,1.49q-7,0-10.62-1.62a15.17,15.17,0,0,1-5.72-4.2,13.34,13.34,0,0,1-2.77-5.42,59.07,59.07,0,0,1-1-12.41Z"/><path class="cls-1" d="M354.51,141.49l9.61-.93c.57,3.22,1.75,5.59,3.51,7.1a10.62,10.62,0,0,0,7.16,2.27q4.77,0,7.19-2a6,6,0,0,0,2.42-4.72,4.45,4.45,0,0,0-1-2.95,8.14,8.14,0,0,0-3.55-2.12q-1.74-.6-7.91-2.13-7.94-2-11.14-4.84a12.73,12.73,0,0,1-4.5-9.84,12.52,12.52,0,0,1,2.12-7,13.24,13.24,0,0,1,6.1-4.95,24.53,24.53,0,0,1,9.62-1.7q9.21,0,13.86,4a14.26,14.26,0,0,1,4.89,10.77l-9.87.43a8.42,8.42,0,0,0-2.72-5.42q-2.08-1.65-6.26-1.65a11.29,11.29,0,0,0-6.74,1.77,3.57,3.57,0,0,0-1.56,3,3.77,3.77,0,0,0,1.46,3q1.88,1.58,9.08,3.27a48.23,48.23,0,0,1,10.65,3.52,13.69,13.69,0,0,1,5.41,5,15.41,15.41,0,0,1-.38,15.66,14,14,0,0,1-6.61,5.46,27.7,27.7,0,0,1-10.64,1.78q-9.27,0-14.24-4.29T354.51,141.49Z"/><path class="cls-1" d="M421.82,157.4V108.9h9.88v40.26h24.55v8.24Z"/><path class="cls-1" d="M463.28,157.4V108.5h36.26v8.28H473.16v10.84h24.55v8.24H473.16v13.3h27.32v8.24Z"/><path class="cls-1" d="M521.32,157.4l-17.47-48.9h10.7l12.38,36.19,12-36.19h10.48l-17.51,48.9Z"/><path class="cls-1" d="M554.41,157.4V108.5h36.26v8.28H564.29v10.84h24.55v8.24H564.29v13.3h27.32v8.24Z"/><path class="cls-1" d="M600.25,157.4V108.9h9.87v40.26h24.55v8.24Z"/><g class="cls-2"><circle cx="94.37" cy="95.49" r="92.2"/></g><circle class="cls-3" cx="94.1" cy="94.1" r="94.1"/><g class="cls-4"><ellipse class="cls-1" cx="111.64" cy="97.3" rx="67.59" ry="66.07"/><ellipse class="cls-5" cx="111.26" cy="97.24" rx="67.59" ry="66.07"/><ellipse class="cls-6" cx="110.87" cy="97.18" rx="67.59" ry="66.07"/><ellipse class="cls-7" cx="110.49" cy="97.11" rx="67.59" ry="66.07"/><ellipse class="cls-8" cx="110.1" cy="97.05" rx="67.59" ry="66.07"/><ellipse class="cls-9" cx="109.71" cy="96.99" rx="67.59" ry="66.07"/><ellipse class="cls-10" cx="109.33" cy="96.93" rx="67.59" ry="66.07"/><ellipse class="cls-11" cx="108.94" cy="96.86" rx="67.59" ry="66.07"/><ellipse class="cls-12" cx="108.56" cy="96.8" rx="67.59" ry="66.07"/><ellipse class="cls-13" cx="108.17" cy="96.74" rx="67.59" ry="66.07"/><ellipse class="cls-14" cx="107.79" cy="96.67" rx="67.59" ry="66.07"/><ellipse class="cls-15" cx="107.4" cy="96.61" rx="67.59" ry="66.07"/><ellipse class="cls-16" cx="107.02" cy="96.55" rx="67.59" ry="66.07"/><ellipse class="cls-17" cx="106.63" cy="96.49" rx="67.59" ry="66.07"/><ellipse class="cls-18" cx="106.24" cy="96.42" rx="67.59" ry="66.07"/><ellipse class="cls-19" cx="105.86" cy="96.36" rx="67.59" ry="66.07"/><ellipse class="cls-20" cx="105.47" cy="96.3" rx="67.59" ry="66.07"/><ellipse class="cls-21" cx="105.09" cy="96.23" rx="67.59" ry="66.07"/><ellipse class="cls-22" cx="104.7" cy="96.17" rx="67.59" ry="66.07"/><ellipse class="cls-23" cx="104.32" cy="96.11" rx="67.59" ry="66.07"/><ellipse class="cls-24" cx="103.93" cy="96.05" rx="67.59" ry="66.07"/><ellipse class="cls-25" cx="103.55" cy="95.98" rx="67.59" ry="66.07"/><ellipse class="cls-26" cx="103.16" cy="95.92" rx="67.59" ry="66.07"/><ellipse class="cls-27" cx="102.77" cy="95.86" rx="67.59" ry="66.07"/><ellipse class="cls-28" cx="102.39" cy="95.79" rx="67.59" ry="66.07"/><ellipse class="cls-29" cx="102" cy="95.73" rx="67.59" ry="66.07"/><ellipse class="cls-30" cx="101.62" cy="95.67" rx="67.59" ry="66.07"/><ellipse class="cls-31" cx="101.23" cy="95.61" rx="67.59" ry="66.07"/><ellipse class="cls-32" cx="100.85" cy="95.54" rx="67.59" ry="66.07"/><ellipse class="cls-33" cx="100.46" cy="95.48" rx="67.59" ry="66.07"/><ellipse class="cls-34" cx="100.07" cy="95.42" rx="67.59" ry="66.07"/><ellipse class="cls-35" cx="99.69" cy="95.36" rx="67.59" ry="66.07"/><ellipse class="cls-36" cx="99.3" cy="95.29" rx="67.59" ry="66.07"/><ellipse class="cls-37" cx="98.92" cy="95.23" rx="67.59" ry="66.07"/><ellipse class="cls-38" cx="98.53" cy="95.17" rx="67.59" ry="66.07"/><ellipse class="cls-39" cx="98.15" cy="95.1" rx="67.59" ry="66.07"/><ellipse class="cls-40" cx="97.76" cy="95.04" rx="67.59" ry="66.07"/><ellipse class="cls-41" cx="97.38" cy="94.98" rx="67.59" ry="66.07"/><ellipse class="cls-42" cx="96.99" cy="94.92" rx="67.59" ry="66.07"/><ellipse class="cls-43" cx="96.6" cy="94.85" rx="67.59" ry="66.07"/><ellipse class="cls-44" cx="96.22" cy="94.79" rx="67.59" ry="66.07"/><ellipse class="cls-45" cx="95.83" cy="94.73" rx="67.59" ry="66.07"/><ellipse class="cls-46" cx="95.45" cy="94.66" rx="67.59" ry="66.07"/><ellipse class="cls-47" cx="95.06" cy="94.6" rx="67.59" ry="66.07"/><ellipse class="cls-48" cx="94.68" cy="94.54" rx="67.59" ry="66.07"/><ellipse class="cls-49" cx="94.29" cy="94.48" rx="67.59" ry="66.07"/><ellipse class="cls-50" cx="93.91" cy="94.41" rx="67.59" ry="66.07"/><ellipse class="cls-51" cx="93.52" cy="94.35" rx="67.59" ry="66.07"/><ellipse class="cls-52" cx="93.13" cy="94.29" rx="67.59" ry="66.07"/><ellipse class="cls-53" cx="92.75" cy="94.22" rx="67.59" ry="66.07"/><ellipse class="cls-54" cx="92.36" cy="94.16" rx="67.59" ry="66.07"/><ellipse cx="91.98" cy="94.1" rx="67.59" ry="66.07"/></g><circle class="cls-1" cx="90.46" cy="94.1" r="66.07"/><circle class="cls-55" cx="94.46" cy="94.1" r="66.07"/><path d="M124.76,91.22a10.14,10.14,0,0,0-10.14-10.14H71.76A10.14,10.14,0,0,0,61.62,91.22h0v34.83a10.14,10.14,0,0,0,10.14,10.13h42.86a10.13,10.13,0,0,0,10.14-10.13Zm-28.08,23.3v7.3H89.56v-7.3a7.86,7.86,0,0,1-4.29-7.13,8,8,0,0,1,8-8,7.89,7.89,0,0,1,7.87,7.91v.09A8,8,0,0,1,96.68,114.52Z"/><path d="M76.37,79c.95-11.47,7.54-18.84,17-18.84s16,7.37,17,18.84h5.35c-.48-6.85-2.64-12.68-6.34-17a21.05,21.05,0,0,0-32,0C73.66,66.32,71.5,72.12,71,79Z"/><path class="cls-1" d="M220.41,80.38V27.27h6.18V74.78H250v5.6Z"/><path class="cls-1" d="M305.13,53.75q0,12.75-6.45,20t-17.93,7.3q-11.73,0-18.11-7.17t-6.37-20.25q0-13,6.39-20.11t18.16-7.14q11.44,0,17.88,7.27T305.13,53.75Zm-42.33,0q0,10.78,4.6,16.36t13.35,5.58q8.83,0,13.33-5.56t4.51-16.38q0-10.71-4.49-16.26T280.82,32Q272,32,267.4,37.53T262.8,53.75Z"/><path class="cls-1" d="M339.71,32q-8.76,0-13.82,5.83t-5.07,16q0,10.42,4.89,16.11t13.93,5.69a47.74,47.74,0,0,0,12.68-2V79a39.16,39.16,0,0,1-13.62,2.1q-11.7,0-18.11-7.1t-6.38-20.23a31.93,31.93,0,0,1,3.07-14.39,22.06,22.06,0,0,1,8.86-9.51,26.87,26.87,0,0,1,13.64-3.35,33,33,0,0,1,14.61,3.05l-2.62,5.31A28,28,0,0,0,339.71,32Z"/><path class="cls-1" d="M402.27,80.38H395L375.64,54.62l-5.56,4.94V80.38h-6.17V27.27h6.17V53.6l24.09-26.33h7.3L380.11,50.33Z"/><path class="cls-1" d="M439.18,80.38H409.57V27.27h29.61v5.48H415.75V49.86h22v5.45h-22V74.86h23.43Z"/><path class="cls-1" d="M493.34,53.31q0,13.16-7.14,20.11t-20.54,7H451V27.27h16.27q12.39,0,19.26,6.86T493.34,53.31Zm-6.54.22q0-10.38-5.21-15.66T466.1,32.61h-9V75h7.52q11.07,0,16.61-5.43T486.8,53.53Z"/></g></svg>