<svg xmlns="http://www.w3.org/2000/svg" xmlns:xlink="http://www.w3.org/1999/xlink" viewBox="0 0 816.88 188.2"><defs><linearGradient id="cda7486e-5155-48f8-baf3-61b9c257c9b5" x1="28.39" y1="94.1" x2="160.53" y2="94.1" gradientTransform="translate(94.2 -39.23) rotate(45)" gradientUnits="userSpaceOnUse"><stop offset="0" stop-color="#c9c8c8"/><stop offset="0.06" stop-color="#d9d8d8"/><stop offset="0.13" stop-color="#e3e3e3"/><stop offset="0.21" stop-color="#e6e6e6"/><stop offset="0.29" stop-color="#ededed"/><stop offset="0.55" stop-color="#fff"/><stop offset="1" stop-color="#fff"/></linearGradient></defs><title>locked-pro-level-only-white</title><g style="isolation:isolate"><g id="570884e8-45be-48a5-af9d-1e3d3c014594" data-name="‘ÎÓÈ_1"><g style="opacity:0.25;mix-blend-mode:multiply"><circle cx="94.37" cy="95.49" r="92.2" transform="translate(-39.88 94.7) rotate(-45)"/></g><circle cx="94.1" cy="94.1" r="94.1" transform="translate(-38.98 94.1) rotate(-45)" style="fill:#e30613"/><g style="opacity:0.4;mix-blend-mode:multiply"><ellipse cx="111.64" cy="97.3" rx="67.59" ry="66.07" style="fill:#fff"/><ellipse cx="111.26" cy="97.24" rx="67.59" ry="66.07" style="fill:#fafafa"/><ellipse cx="110.87" cy="97.18" rx="67.59" ry="66.07" style="fill:#f5f5f5"/><ellipse cx="110.49" cy="97.11" rx="67.59" ry="66.07" style="fill:#f0f0f0"/><ellipse cx="110.1" cy="97.05" rx="67.59" ry="66.07" style="fill:#ebebeb"/><ellipse cx="109.71" cy="96.99" rx="67.59" ry="66.07" style="fill:#e6e6e6"/><ellipse cx="109.33" cy="96.93" rx="67.59" ry="66.07" style="fill:#e1e1e1"/><ellipse cx="108.94" cy="96.86" rx="67.59" ry="66.07" style="fill:#dcdcdc"/><ellipse cx="108.56" cy="96.8" rx="67.59" ry="66.07" style="fill:#d7d7d7"/><ellipse cx="108.17" cy="96.74" rx="67.59" ry="66.07" style="fill:#d2d2d2"/><ellipse cx="107.79" cy="96.67" rx="67.59" ry="66.07" style="fill:#cdcdcd"/><ellipse cx="107.4" cy="96.61" rx="67.59" ry="66.07" style="fill:#c8c8c8"/><ellipse cx="107.02" cy="96.55" rx="67.59" ry="66.07" style="fill:#c3c3c3"/><ellipse cx="106.63" cy="96.49" rx="67.59" ry="66.07" style="fill:#bebebe"/><ellipse cx="106.24" cy="96.42" rx="67.59" ry="66.07" style="fill:#b9b9b9"/><ellipse cx="105.86" cy="96.36" rx="67.59" ry="66.07" style="fill:#b4b4b4"/><ellipse cx="105.47" cy="96.3" rx="67.59" ry="66.07" style="fill:#afafaf"/><ellipse cx="105.09" cy="96.23" rx="67.59" ry="66.07" style="fill:#aaa"/><ellipse cx="104.7" cy="96.17" rx="67.59" ry="66.07" style="fill:#a5a5a5"/><ellipse cx="104.32" cy="96.11" rx="67.59" ry="66.07" style="fill:#a0a0a0"/><ellipse cx="103.93" cy="96.05" rx="67.59" ry="66.07" style="fill:#9b9b9b"/><ellipse cx="103.55" cy="95.98" rx="67.59" ry="66.07" style="fill:#969696"/><ellipse cx="103.16" cy="95.92" rx="67.59" ry="66.07" style="fill:#919191"/><ellipse cx="102.77" cy="95.86" rx="67.59" ry="66.07" style="fill:#8c8c8c"/><ellipse cx="102.39" cy="95.79" rx="67.59" ry="66.07" style="fill:#878787"/><ellipse cx="102" cy="95.73" rx="67.59" ry="66.07" style="fill:#828282"/><ellipse cx="101.62" cy="95.67" rx="67.59" ry="66.07" style="fill:#7d7d7d"/><ellipse cx="101.23" cy="95.61" rx="67.59" ry="66.07" style="fill:#787878"/><ellipse cx="100.85" cy="95.54" rx="67.59" ry="66.07" style="fill:#737373"/><ellipse cx="100.46" cy="95.48" rx="67.59" ry="66.07" style="fill:#6e6e6e"/><ellipse cx="100.07" cy="95.42" rx="67.59" ry="66.07" style="fill:#696969"/><ellipse cx="99.69" cy="95.36" rx="67.59" ry="66.07" style="fill:#646464"/><ellipse cx="99.3" cy="95.29" rx="67.59" ry="66.07" style="fill:#5f5f5f"/><ellipse cx="98.92" cy="95.23" rx="67.59" ry="66.07" style="fill:#5a5a5a"/><ellipse cx="98.53" cy="95.17" rx="67.59" ry="66.07" style="fill:#555"/><ellipse cx="98.15" cy="95.1" rx="67.59" ry="66.07" style="fill:#505050"/><ellipse cx="97.76" cy="95.04" rx="67.59" ry="66.07" style="fill:#4b4b4b"/><ellipse cx="97.38" cy="94.98" rx="67.59" ry="66.07" style="fill:#464646"/><ellipse cx="96.99" cy="94.92" rx="67.59" ry="66.07" style="fill:#414141"/><ellipse cx="96.6" cy="94.85" rx="67.59" ry="66.07" style="fill:#3c3c3c"/><ellipse cx="96.22" cy="94.79" rx="67.59" ry="66.07" style="fill:#373737"/><ellipse cx="95.83" cy="94.73" rx="67.59" ry="66.07" style="fill:#323232"/><ellipse cx="95.45" cy="94.66" rx="67.59" ry="66.07" style="fill:#2d2d2d"/><ellipse cx="95.06" cy="94.6" rx="67.59" ry="66.07" style="fill:#282828"/><ellipse cx="94.68" cy="94.54" rx="67.59" ry="66.07" style="fill:#232323"/><ellipse cx="94.29" cy="94.48" rx="67.59" ry="66.07" style="fill:#1e1e1e"/><ellipse cx="93.91" cy="94.41" rx="67.59" ry="66.07" style="fill:#191919"/><ellipse cx="93.52" cy="94.35" rx="67.59" ry="66.07" style="fill:#141414"/><ellipse cx="93.13" cy="94.29" rx="67.59" ry="66.07" style="fill:#0f0f0f"/><ellipse cx="92.75" cy="94.22" rx="67.59" ry="66.07" style="fill:#0a0a0a"/><ellipse cx="92.36" cy="94.16" rx="67.59" ry="66.07" style="fill:#050505"/><ellipse cx="91.98" cy="94.1" rx="67.59" ry="66.07"/></g><circle cx="90.45" cy="94.1" r="66.07" transform="translate(-40.04 91.52) rotate(-45)" style="fill:#fff"/><circle cx="94.46" cy="94.1" r="66.07" transform="translate(-38.87 94.35) rotate(-45)" style="fill:url(#cda7486e-5155-48f8-baf3-61b9c257c9b5)"/><path d="M124.76,91.22a10.14,10.14,0,0,0-10.14-10.14H71.76A10.14,10.14,0,0,0,61.62,91.22v34.83a10.14,10.14,0,0,0,10.14,10.13h42.86a10.14,10.14,0,0,0,10.14-10.13Zm-28.08,23.3v7.3H89.56v-7.3a7.84,7.84,0,0,1-4.29-7.13,8,8,0,0,1,8-8,7.89,7.89,0,0,1,7.87,8A8,8,0,0,1,96.68,114.52Z"/><path d="M76.37,79c.95-11.47,7.54-18.84,17-18.84s16,7.37,17,18.84h5.35c-.48-6.85-2.64-12.68-6.34-17a21.05,21.05,0,0,0-32,0C73.66,66.32,71.5,72.12,71,79Z"/><path d="M220.41,80.38V27.27h6.18V74.78H250v5.6Z" style="fill:#fff"/><path d="M305.13,53.75q0,12.75-6.45,20t-17.93,7.3q-11.73,0-18.11-7.17t-6.37-20.25q0-13,6.39-20.11t18.16-7.14q11.44,0,17.88,7.27T305.13,53.75Zm-42.33,0q0,10.78,4.6,16.36t13.35,5.58q8.83,0,13.33-5.56t4.51-16.38q0-10.71-4.49-16.26T280.82,32Q272,32,267.4,37.53T262.8,53.75Z" style="fill:#fff"/><path d="M339.71,32q-8.76,0-13.82,5.83t-5.07,16q0,10.43,4.89,16.11t13.93,5.69a47.72,47.72,0,0,0,12.68-2V79A39,39,0,0,1,338.7,81.1Q327,81.1,320.59,74t-6.38-20.23a31.93,31.93,0,0,1,3.07-14.39,22,22,0,0,1,8.86-9.51,26.83,26.83,0,0,1,13.64-3.35,33,33,0,0,1,14.61,3.05l-2.62,5.31A28.13,28.13,0,0,0,339.71,32Z" style="fill:#fff"/><path d="M402.27,80.38H395L375.64,54.62l-5.56,4.94V80.38h-6.17V27.27h6.17V53.6l24.09-26.33h7.3L380.11,50.33Z" style="fill:#fff"/><path d="M439.18,80.38H409.57V27.27h29.61v5.48H415.75V49.86h22v5.45h-22V74.86h23.43Z" style="fill:#fff"/><path d="M493.34,53.31q0,13.16-7.14,20.11t-20.54,7H451V27.27h16.27q12.39,0,19.26,6.86T493.34,53.31Zm-6.54.22q0-10.38-5.21-15.66T466.1,32.61h-9V75h7.52q11.06,0,16.61-5.43T486.8,53.53Z" style="fill:#fff"/><path d="M256.48,121.83q0,8.58-5.35,13.12t-15.24,4.54h-4.84v18.89H219.79V105.27h17q9.66,0,14.69,4.15T256.48,121.83Zm-25.43,8.43h3.71q5.19,0,7.77-2a7.19,7.19,0,0,0,2.58-6q0-4-2.16-5.85t-6.77-1.89h-5.13Z" style="fill:#fff"/><path d="M277.77,138v20.38H266.51V105.27H282q10.81,0,16,3.94c3.46,2.63,5.19,6.61,5.19,12a14.07,14.07,0,0,1-2.58,8.33,17,17,0,0,1-7.3,5.73q12,17.91,15.62,23.14H296.45L283.77,138Zm0-9.16h3.64q5.32,0,7.88-1.78a6.35,6.35,0,0,0,2.54-5.59q0-3.78-2.6-5.38c-1.73-1.06-4.41-1.6-8-1.6h-3.42Z" style="fill:#fff"/><path d="M363.83,131.75q0,13.19-6.54,20.27t-18.74,7.08q-12.21,0-18.75-7.08t-6.53-20.34q0-13.26,6.55-20.26t18.8-7q12.24,0,18.73,7T363.83,131.75Zm-38.76,0q0,8.9,3.38,13.4t10.1,4.51q13.47,0,13.48-17.91t-13.41-18q-6.72,0-10.13,4.53T325.07,131.75Z" style="fill:#fff"/><path d="M394.17,158.38V105.27h11.26v43.81H427v9.3Z" style="fill:#fff"/><path d="M466.79,158.38H436.2V105.27h30.59v9.22H447.46v11.66h18v9.23h-18v13.7h19.33Z" style="fill:#fff"/><path d="M508.17,105.27h11.37l-18.06,53.11H489.2l-18-53.11h11.37l10,31.6q.84,2.81,1.73,6.52t1.11,5.18a91.55,91.55,0,0,1,2.72-11.7Z" style="fill:#fff"/><path d="M556.81,158.38H526.22V105.27h30.59v9.22H537.48v11.66h18v9.23h-18v13.7h19.33Z" style="fill:#fff"/><path d="M567.89,158.38V105.27h11.26v43.81h21.54v9.3Z" style="fill:#fff"/><path d="M676,131.75q0,12.75-6.44,20.05t-17.93,7.3q-11.73,0-18.11-7.17t-6.38-20.25q0-13,6.4-20.11t18.16-7.14q11.45,0,17.87,7.27T676,131.75Zm-42.32,0q0,10.78,4.6,16.36t13.35,5.58q8.82,0,13.33-5.56t4.51-16.38q0-10.73-4.49-16.26T651.66,110q-8.82,0-13.42,5.58T633.64,131.75Z" style="fill:#fff"/><path d="M729.29,158.38h-7l-29-44.58h-.29q.59,7.85.58,14.39v30.19h-5.7V105.27h7l29,44.39H724q-.07-1-.33-6.3t-.18-7.62V105.27h5.77Z" style="fill:#fff"/><path d="M743.9,158.38V105.27h6.17v47.51h23.44v5.6Z" style="fill:#fff"/><path d="M796,131.82l14.17-26.55h6.68l-17.73,32.51v20.6h-6.24V138.07l-17.7-32.8H782Z" style="fill:#fff"/></g></g></svg>