<svg id="0b32fb14-d499-4b70-a16e-df967ecfa9bc" data-name="Layer 1" xmlns="http://www.w3.org/2000/svg" xmlns:xlink="http://www.w3.org/1999/xlink" viewBox="0 0 1057.36 258.14"><defs><linearGradient id="2a157b03-959b-4db2-b3ab-8cb758267bf6" x1="72.33" x2="72.33" y2="10.31" gradientUnits="userSpaceOnUse"><stop offset="0" stop-color="#bd0000"/><stop offset="0.24" stop-color="red"/><stop offset="1" stop-color="#4d0000"/></linearGradient><linearGradient id="d9ea2b0e-0dfe-43d1-8696-d7bda2932d22" x1="246.77" y1="184.73" x2="257.07" y2="184.73" xlink:href="#2a157b03-959b-4db2-b3ab-8cb758267bf6"/><linearGradient id="78905dad-bcd3-466d-a01d-36a979631730" x1="164.96" y1="0.02" x2="164.96" y2="184.08" gradientUnits="userSpaceOnUse"><stop offset="0" stop-color="#b80000"/><stop offset="0.07" stop-color="#ff5a5a"/><stop offset="0.15" stop-color="#de0000"/><stop offset="1" stop-color="#4d0000"/></linearGradient></defs><title>pdf-download</title><rect y="9.3" width="247.97" height="248.84" style="fill:#123377"/><rect x="6.16" y="10.39" width="240.71" height="241.6" style="fill:#fff"/><path d="M90.26,10.31C85.28,3.84,79.07,0,72.33,0S59.38,3.84,54.4,10.31Z" style="fill:url(#2a157b03-959b-4db2-b3ab-8cb758267bf6)"/><path d="M246.77,202.66c6.46-5,10.3-11.2,10.3-17.93s-3.84-12.95-10.3-17.93Z" style="fill:url(#d9ea2b0e-0dfe-43d1-8696-d7bda2932d22)"/><path d="M246.77,166.8c6.22,5.38,9.84,11,10.28,17.28C257.1,182.82,257,11,257,11A11,11,0,0,0,246,.05L72.85,0c6.54.19,10.79,3.55,17.44,10.32L246.77,166.82Z" style="fill:url(#78905dad-bcd3-466d-a01d-36a979631730)"/><path d="M185.28,25.09l7.41,7.41a26.63,26.63,0,0,1,4.66,5.79,8,8,0,0,1,.57,5.67,12.8,12.8,0,0,1-3.67,6.19,13.48,13.48,0,0,1-5.69,3.66,8.54,8.54,0,0,1-5.48-.15c-1.75-.66-3.86-2.23-6.35-4.71l-2-2-9.52,9.52-5.65-5.66Zm1.49,9.82-7.63,7.63,1.75,1.75c1.55,1.55,2.9,2.18,4.07,1.91a7.39,7.39,0,0,0,3.46-2.12,6.72,6.72,0,0,0,1.84-2.87,3.46,3.46,0,0,0-.06-2.36,8.19,8.19,0,0,0-1.68-2.19Z" style="fill:#fff"/><path d="M205,44.82l6.09,6.09a23.27,23.27,0,0,1,5.37,7.5,11.52,11.52,0,0,1,0,7.89q-1.38,4.35-6.26,9.24a26.92,26.92,0,0,1-7.06,5.24,15.87,15.87,0,0,1-6.6,1.86,10.35,10.35,0,0,1-5.39-1.24,24.31,24.31,0,0,1-5.14-4.09l-6.77-6.77Zm1.25,10.06L189.35,71.79l1,1A7.46,7.46,0,0,0,194.11,75a7.32,7.32,0,0,0,4.36-.91,24.91,24.91,0,0,0,6.06-4.79,19.82,19.82,0,0,0,4.35-5.76,6.62,6.62,0,0,0,.63-4.18,8.08,8.08,0,0,0-2.29-3.55Z" style="fill:#fff"/><path d="M226.7,66.51,242,81.77l-4.4,4.41L228,76.57l-6.73,6.73,7.4,7.41-4.41,4.41-7.4-7.41L206.63,97.88,201,92.23Z" style="fill:#fff"/><path d="M123.13,237.9a1.72,1.72,0,0,1-1.3-.65l-33.41-40.2c-.33-.39-.45-.75-.34-1s.47-.37,1-.37H104.3a2.62,2.62,0,0,0,2.61-2.62V163.23a2.08,2.08,0,0,1,2.08-2.08h28.28a2.08,2.08,0,0,1,2.08,2.08v29.84a2.62,2.62,0,0,0,2.61,2.62H157.2c.52,0,.86.13,1,.37s-.15.76-.34,1l-33.42,40.2A1.7,1.7,0,0,1,123.13,237.9Zm19.71-10.8L163.75,202A8.34,8.34,0,0,0,157.2,188H147V163.23a9.76,9.76,0,0,0-9.75-9.75H109a9.76,9.76,0,0,0-9.75,9.75V188H89.06a8.35,8.35,0,0,0-6.54,14l20.9,25.14H49.12a26,26,0,1,1,0-52c.56,0,1.11,0,1.67.06l1.09.07,0-1.09a37.42,37.42,0,0,1,51.76-33.65l1,.42.38-1a43,43,0,0,1,83.35,14.65,44.66,44.66,0,0,1-.26,4.69l-.14,1.22,1.23-.06.55,0a33.36,33.36,0,0,1,0,66.71Z" style="fill:#0b70b5"/><path d="M380,78.05c31.37,0,55.35,23.21,55.35,53.81s-24.14,53.8-55.81,53.8h-43V78.05ZM348.84,174H380.2c24,0,42.74-18,42.74-42,0-24.14-19.07-42.12-43.2-42.12h-30.9Z" style="fill:#0b70b5"/><path d="M526.24,145.08c0,24.29-17.07,41-41.05,41s-41.05-16.75-41.05-41,17.07-40.74,41.05-40.74S526.24,120.94,526.24,145.08Zm-70.11.15c0,17.83,12.15,30.13,29.06,30.13s29.06-12.3,29.06-30.13c0-17.68-12.15-30-29.06-30S456.13,127.55,456.13,145.23Z" style="fill:#0b70b5"/><path d="M617.09,185.66l-23.83-65.79-23.67,65.79H557.13l-30.28-81h12.6l24,68.56L587,104.65h12.6l23.83,68.56,23.68-68.56h12.45l-30,81Z" style="fill:#0b70b5"/><path d="M745.14,135.7v50h-12V138.93c0-14.3-8.61-22.75-22.91-22.75-16,.15-25.82,10.6-27.21,26v43.5H671v-81h12v17.83c5.69-12.3,16.61-18.14,31.36-18.29C733.76,104.19,745.14,116.18,745.14,135.7Z" style="fill:#0b70b5"/><path d="M768.81,185.66V71.59h12V185.66Z" style="fill:#0b70b5"/><path d="M880.88,145.08c0,24.29-17.07,41-41,41s-41-16.75-41-41,17.06-40.74,41-40.74S880.88,120.94,880.88,145.08Zm-70.1.15c0,17.83,12.14,30.13,29.05,30.13s29.06-12.3,29.06-30.13c0-17.68-12.15-30-29.06-30S810.78,127.55,810.78,145.23Z" style="fill:#0b70b5"/><path d="M948.36,173.21c-6.45,8.76-16.75,13.07-29.67,13.07-16.75,0-27.52-10.76-27.52-24.75,0-14.15,11.23-23.06,30.29-23.22h26.6v-4.76c0-11.84-7.38-18.91-21.68-18.91-8.92,0-17.22,3.38-25.67,9.22l-5.08-8.76c10.46-6.92,19.22-10.91,33.06-10.91,20,0,31,10.6,31.2,28l.16,53.5H948.36Zm-.15-15.53V148H923c-13.53,0-20.6,4.15-20.6,13.07s7.22,14.75,18.6,14.75C934.68,175.82,945.13,168.91,948.21,157.68Z" style="fill:#0b70b5"/><path d="M1057.36,185.66h-12V168.29c-6,11.38-17.06,18-31.51,18-23.06,0-39.05-17.07-39.05-41.2,0-24.29,16-41.05,38.9-41.05,14.45,0,25.67,6.61,31.66,18.14V71.59h12Zm-12-40.27c0-17.68-12.14-30.44-29.2-30.44-17.22,0-29.37,12.76-29.37,30.44,0,17.52,12.15,30.13,29.37,30.13C1033.22,175.52,1045.36,162.91,1045.36,145.39Z" style="fill:#0b70b5"/></svg>