<svg xmlns="http://www.w3.org/2000/svg" xmlns:xlink="http://www.w3.org/1999/xlink" viewBox="0 0 329.74 325.53"><defs><filter id="b245174c-4fca-4d6c-879c-ec506b15c85e" x="0" y="-8355" width="329.74" height="32766" filterUnits="userSpaceOnUse" color-interpolation-filters="sRGB"><feFlood flood-color="#fff" result="bg"/><feBlend in="SourceGraphic" in2="bg"/></filter><mask id="20694a02-f423-47c3-b186-762aff6daf20" x="0" y="-8355" width="329.74" height="32766" maskUnits="userSpaceOnUse"><g style="filter:url(#b245174c-4fca-4d6c-879c-ec506b15c85e)"/></mask><radialGradient id="5e09d43d-388e-4324-927e-e4e106523b67" cx="166.93" cy="1872.66" r="94.81" gradientTransform="translate(-125.4 3.26) scale(1.74 0.16)" gradientUnits="userSpaceOnUse"><stop offset="0" stop-color="#999"/><stop offset="0.14" stop-color="#909090"/><stop offset="0.18" stop-color="#8c8c8c"/><stop offset="1"/></radialGradient><filter id="c4c81a35-3131-4812-98aa-b5f3f1eb513f" x="0" y="294.47" width="329.74" height="31.06" filterUnits="userSpaceOnUse" color-interpolation-filters="sRGB"><feFlood flood-color="#fff" result="bg"/><feBlend in="SourceGraphic" in2="bg"/></filter><mask id="825b2361-818b-438c-8c81-d4ad8ea5e804" x="0" y="294.47" width="329.74" height="31.06" maskUnits="userSpaceOnUse"><g style="mask:url(#20694a02-f423-47c3-b186-762aff6daf20);filter:url(#c4c81a35-3131-4812-98aa-b5f3f1eb513f)"><ellipse cx="164.87" cy="310" rx="164.87" ry="15.53" style="mix-blend-mode:multiply;fill:url(#5e09d43d-388e-4324-927e-e4e106523b67)"/></g></mask><radialGradient id="09922e7b-f942-4bff-94bf-1679ffbd00d5" cx="166.93" cy="1872.66" r="94.81" gradientTransform="translate(-125.4 3.26) scale(1.74 0.16)" gradientUnits="userSpaceOnUse"><stop offset="0" stop-color="#404040"/><stop offset="0.09" stop-color="#494949"/><stop offset="0.18" stop-color="#595959"/><stop offset="1" stop-color="#f2f2f2"/></radialGradient></defs><title>TripValetWarningIcon</title><g style="isolation:isolate"><g id="13d10e22-9cb0-4877-8b42-bdfb2b764468" data-name="Layer 1"><circle cx="164.87" cy="140" r="140" style="fill:#0b70b5"/><g style="mask:url(#825b2361-818b-438c-8c81-d4ad8ea5e804)"><ellipse cx="164.87" cy="310" rx="164.87" ry="15.53" style="mix-blend-mode:multiply;fill:url(#09922e7b-f942-4bff-94bf-1679ffbd00d5)"/></g><path d="M250.88,172.7,190.35,67.87a29.43,29.43,0,0,0-51,0L78.86,172.7a29.43,29.43,0,0,0,25.48,44.14H225.4a29.43,29.43,0,0,0,25.48-44.14Zm-15.07,20.73a11.9,11.9,0,0,1-10.41,6H104.34a12,12,0,0,1-10.42-18L154.45,76.57a12,12,0,0,1,20.84,0L235.81,181.4A11.88,11.88,0,0,1,235.81,193.43Z" style="fill:#fff"/><path d="M171.57,109.35H158.41a3.88,3.88,0,0,0-3.86,4.2l3.46,41a3.87,3.87,0,0,0,3.86,3.55h6.24a3.88,3.88,0,0,0,3.87-3.55l3.45-41A3.87,3.87,0,0,0,171.57,109.35Z" style="fill:#fff"/><path d="M171.41,167.3a10.38,10.38,0,0,0-13.08,0,8.07,8.07,0,0,0,0,11.9,10.34,10.34,0,0,0,13.08,0,8.07,8.07,0,0,0,0-11.9Z" style="fill:#fff"/></g></g></svg>