<svg id="a8ca5b11-26fd-4ece-a4a1-797149cde3e6" data-name="Layer 1" xmlns="http://www.w3.org/2000/svg" viewBox="0 0 724.62 476.16"><title>TVI-TM-Logo-Vertical</title><polygon points="61.55 239.55 146.38 239.55 146.38 258.98 115.35 258.98 115.35 341.06 92.44 341.06 92.44 258.98 61.55 258.98 61.55 239.55" style="fill:#0071b8"/><path d="M147.68,263H170V277.1c5.36-9.57,14.21-14.79,25.81-14.93v21c-16-1.44-25.81,7.11-25.81,20.31v37.56H147.68Z" style="fill:#0071b8"/><path d="M214.82,228.38c7.11,0,12,5.22,12,12.47s-4.93,12.47-12,12.47-12-5.22-12-12.47,4.93-12.47,12-12.47M203.66,263H226v78H203.66Z" style="fill:#0071b8"/><path d="M234.4,263h22.33v11.45c5.51-7.83,14.07-12.18,24.65-12.18,21.9,0,36.69,16.1,36.69,40.17,0,23.64-14.36,39.45-36.25,39.45-10.88,0-19.43-4.35-25.09-12.19v39.45H234.4Zm41.76,60.32c11.46,0,19.29-8.84,19.29-21.6,0-12.48-7.83-21.47-19.29-21.47s-19.43,8.85-19.43,21.47c0,12.9,8,21.6,19.43,21.6" style="fill:#0071b8"/><polygon points="333.49 239.55 361.19 316.11 389.03 239.55 412.67 239.55 372.36 341.06 348.72 341.06 308.84 239.55 333.49 239.55" style="fill:#253977"/><path d="M434.71,294.22h21.46v-1.45c0-8.27-5.51-13.06-16.24-13.06-7,0-15.08,2.32-23.2,6.82l-7-15.37c11.6-5.8,21.61-9,35.24-9,20.88,0,32.91,10.44,33.06,28l.14,50.9H456.32v-9.14c-5.22,6.53-13.63,10.15-24.51,10.15-16.68,0-26.83-10.15-26.83-24.36,0-14.65,10.59-23.35,29.73-23.49m3.33,31.9c9.43,0,16.83-5.08,18.13-11.75v-7H438.63c-8.56,0-12.77,2.61-12.77,8.85,0,5.94,4.65,9.86,12.18,9.86" style="fill:#253977"/><rect x="486.62" y="233.46" width="22.33" height="107.6" style="fill:#253977"/><path d="M555.36,262.31c27.4,0,40.16,18.13,38.28,46.55h-56c2.62,9.86,10.16,15.66,20.16,15.66a27.66,27.66,0,0,0,19.72-8.26l11.75,11.89c-7.83,8.7-19.29,13.77-33.35,13.77-25,0-40.75-15.95-40.75-39.58,0-24.08,16.39-40,40.17-40m17.4,33.36c-.29-10.3-7-17-17.26-17-9.86,0-16.53,6.67-18.27,17Z" style="fill:#253977"/><path d="M597.12,266.52H608V245.06h22.19v21.46h21.17V282H630.18v32.19c0,6.52,2.75,9.13,7.54,9,2.9,0,6.38-1,10.44-2.9l4.64,16.39a41.59,41.59,0,0,1-20.3,5.36c-13.92,0-24.51-8-24.51-24.07V281.89H597.12Z" style="fill:#253977"/><polygon points="653.32 247.01 671.73 247.01 671.73 251.97 665.63 251.97 665.63 267.95 659.39 267.95 659.39 251.97 653.32 251.97 653.32 247.01" style="fill:#253977"/><polygon points="673.67 247.01 680.33 247.01 685.38 258.6 690.43 247.01 697.09 247.01 697.09 267.95 691.66 267.95 691.63 255.55 687.41 265.89 683.35 265.89 679.14 255.55 679.14 267.95 673.67 267.95 673.67 247.01" style="fill:#253977"/><path d="M0,366.65H18.33V475.38H0Z" style="fill:#253977"/><path d="M41.94,392.75H59.8v15.84c5.9-11.49,16.47-16.46,30.45-16.46,19.26,0,30.75,12.11,30.75,31.84v51.41H103.14V428.94c0-12.43-7.46-20-19.88-20-13.67.16-22.22,9.63-23.46,22.53v43.95H41.94Z" style="fill:#253977"/><path d="M174.9,392.13c14.91,0,26.56,4.81,34.17,13.51l-9.78,11.49c-5.75-5.9-13.67-9.47-23.61-9.32-14.29,0-24.55,10.72-24.55,26.41s10.26,26.41,24.55,26.41c10.4,0,18.79-3.42,24.38-9.94l9.95,9.94C202.55,470.41,190.59,476,174.9,476c-24.54,0-41.63-16.94-41.63-41.79C133.27,409.21,150.36,392.13,174.9,392.13Z" style="fill:#253977"/><path d="M255.52,392.13c29,0,40.85,18.95,38.68,48.77H231.75c2.8,12.74,12.58,20.66,25.63,20.66a32.14,32.14,0,0,0,23.3-9.63l9.48,10.1c-8.08,8.85-19.88,14-34.18,14-25.47,0-42.25-16.94-42.25-41.79C213.73,409.21,231,392.28,255.52,392.13Zm23.14,35.72c-.62-13.36-9.47-21.43-23-21.43-13,0-22.21,8.23-24.23,21.43Z" style="fill:#253977"/><path d="M309,392.75h17.87v15.84c5.9-11.49,16.46-16.46,30.44-16.46,19.26,0,30.76,12.11,30.76,31.84v51.41H370.15V428.94c0-12.43-7.45-20-19.88-20-13.67.16-22.21,9.63-23.45,22.53v43.95H309Z" style="fill:#253977"/><path d="M399.66,395.85h11.66V373.18H429v22.67h24.39v13.36H429v39.61c0,8.55,3.27,11.19,8.86,11.19,3.72,0,7.61-1.25,12.42-3.58l4.51,13.67a39.64,39.64,0,0,1-20.35,6.06c-12.43,0-23.14-7.14-23.14-24.08V409.21H399.66Z" style="fill:#253977"/><path d="M476.24,358.26c5.91,0,10.41,4.51,10.41,10.88,0,6.21-4.5,10.71-10.41,10.71s-10.4-4.5-10.4-10.71C465.84,362.77,470.34,358.26,476.24,358.26Zm-8.85,34.49H485.1v82.63H467.39Z" style="fill:#253977"/><path d="M513.21,392.75l23,65.08,22.68-65.08h17.86l-31.69,82.63H526.57l-32-82.63Z" style="fill:#253977"/><path d="M616.2,392.13c29,0,40.85,18.95,38.68,48.77H592.43c2.8,12.74,12.58,20.66,25.63,20.66a32.14,32.14,0,0,0,23.3-9.63l9.48,10.1c-8.08,8.85-19.88,14-34.17,14-25.48,0-42.26-16.94-42.26-41.79C574.41,409.21,591.66,392.28,616.2,392.13Zm23.14,35.72c-.62-13.36-9.47-21.43-23-21.43-13.05,0-22.21,8.23-24.23,21.43Z" style="fill:#253977"/><path d="M666.06,451.77C673.2,458.14,684.7,462,693.71,462c7.61,0,13.51-2.64,13.51-8.86,0-16.93-43.49-7.45-43.34-37.28,0-16.77,14.61-23.92,30.45-23.92,10.41,0,21.44,3.11,28.89,8.39l-6.52,13.2c-7.3-4.5-16.47-7.3-23.77-7.3-7,0-12.11,2.33-12.11,8.23,0,15.23,43.95,7,43.8,37,0,16.93-15.07,24.55-31.69,24.55-12.11,0-25-4-33.24-11.5Z" style="fill:#253977"/><path d="M348.92,171.62c-11.56-37-1.83-58.64,13.34-92.43-8.4,36-9,60.17,5.64,92.43Z" style="fill:#253876"/><path d="M413.92,115.83a60.26,60.26,0,0,0-4.28-10A54.08,54.08,0,0,0,375,79.54a59.94,59.94,0,0,0-10.82-1.41,35.35,35.35,0,0,1,3.19-1.56,42.78,42.78,0,0,1,8.87-2.78,36.71,36.71,0,0,1,12.81-.28,29.42,29.42,0,0,1,22.6,17.12A36.75,36.75,0,0,1,414.83,103a42.82,42.82,0,0,1-.27,9.3C414.25,114.58,413.91,115.82,413.92,115.83Z" style="fill:#253876"/><path d="M361.74,76.65a55.66,55.66,0,0,0-10-2.06,45.82,45.82,0,0,0-37.4,13.84,54.58,54.58,0,0,0-6.28,8.1s0-1.28.28-3.49a43.46,43.46,0,0,1,2-8.82,34.47,34.47,0,0,1,5.87-10.66,25.07,25.07,0,0,1,24.4-9A34.15,34.15,0,0,1,352,68.81a42.19,42.19,0,0,1,7.27,5.38C360.9,75.69,361.73,76.65,361.74,76.65Z" style="fill:#253876"/><path d="M362.35,74.51a46,46,0,0,0-6.2-5.68,42,42,0,0,0-32.72-7.48,47.22,47.22,0,0,0-8.05,2.42,26.37,26.37,0,0,1,1.75-2.1,32.63,32.63,0,0,1,5.35-4.73,28.25,28.25,0,0,1,8.91-4.23,22.8,22.8,0,0,1,21.34,4.88,28.31,28.31,0,0,1,6.19,7.68,32.83,32.83,0,0,1,2.77,6.59C362.18,73.53,362.34,74.5,362.35,74.51Z" style="fill:#253876"/><path d="M416,80.3a51,51,0,0,0-7.32-5,47.88,47.88,0,0,0-35.7-4,50.31,50.31,0,0,0-8.24,3.26,26.07,26.07,0,0,1,1.58-2.27,32.66,32.66,0,0,1,5.08-5.28,29.94,29.94,0,0,1,8.91-5.16,26,26,0,0,1,23.29,2.59,30.27,30.27,0,0,1,7.56,7A32.71,32.71,0,0,1,415,77.74C415.7,79.35,416,80.3,416,80.3Z" style="fill:#253876"/><path d="M363.11,74.12a42,42,0,0,0-1.54-6.65,29.84,29.84,0,0,0-7.85-11.71,23.71,23.71,0,0,0-11.84-6.25c-3.81-.78-6.65-1.37-6.58-1.43s.74-.35,2.09-.81a27.57,27.57,0,0,1,5.7-1.27,23,23,0,0,1,7.94.49,17.34,17.34,0,0,1,12.63,11.83,22.43,22.43,0,0,1,1,7.89,26.67,26.67,0,0,1-.89,5.77C363.41,73.36,363.1,74.11,363.11,74.12Z" style="fill:#253876"/><path d="M403.22,62.28a42,42,0,0,0-6.12-2.73,28.37,28.37,0,0,0-13.7-.67,22.52,22.52,0,0,0-11.69,5.78c-2.8,2.59-6.1,6.55-6.11,6.45s.15-.8.57-2.16a59.81,59.81,0,0,1,3.47-7.36,22.21,22.21,0,0,1,4.92-6.07,16.45,16.45,0,0,1,16.54-3.09,22,22,0,0,1,6.78,3.89,27.85,27.85,0,0,1,4,4.15C402.79,61.59,403.21,62.28,403.22,62.28Z" style="fill:#253876"/><polygon points="494.25 140.22 502.34 91.95 456.49 109.08 485.44 113.17 494.25 140.22" style="fill:#0071b8"/><polygon points="494.25 140.22 502.34 91.95 456.49 109.08 485.44 113.17 494.25 140.22" style="fill:none"/><path d="M250.42,141.31A214.26,214.26,0,0,0,265,159.71c17.31,19.49,45.48,43.22,81.38,45.55,47.41,3.08,96.56-30.78,146.25-100.7a388.06,388.06,0,0,1-42.55,34.77c-30.09,21.1-75.55,45.53-121.24,42.11C299.25,179.23,273,165.76,250.42,141.31Z" style="fill:#0071b8"/><path d="M468.1,101.53l1.43-.53c-.32-3.35-.78-6.68-1.42-10a109.27,109.27,0,0,0-5.72-19.93,112.3,112.3,0,0,0-22.12-35.22,116.59,116.59,0,0,0-15.72-14.11,108,108,0,0,0-18.29-10.92,111.33,111.33,0,0,0-85.32-4.37,113.58,113.58,0,0,0-20.24,9.69,108.78,108.78,0,0,0-18.05,13.63,111.27,111.27,0,0,0-26.19,37.09,110.16,110.16,0,0,0-6.94,21.89,116.47,116.47,0,0,0-2.35,22.87,117.82,117.82,0,0,0,2.36,22.85c.08.43.18.86.28,1.28a137,137,0,0,0,20.07,17.84c-.35-.78-.71-1.56-1-2.35A103.8,103.8,0,1,1,468.1,101.53Z" style="fill:#253977"/></svg>