<svg id="a80dad32-a40a-48e4-be3a-e6ff38efe8e4" data-name="Layer 1" xmlns="http://www.w3.org/2000/svg" viewBox="0 0 911.51 225.19"><title>TVI-TM-Logo-Horizontal</title><polygon points="292.42 11.61 375.06 11.61 375.06 30.54 344.83 30.54 344.83 110.49 322.51 110.49 322.51 30.54 292.42 30.54 292.42 11.61" style="fill:#0071b8"/><path d="M376.33,34.49h21.75v13.7c5.23-9.32,13.84-14.4,25.15-14.55V54.13c-15.54-1.42-25.15,6.92-25.15,19.77v36.59H376.33Z" style="fill:#0071b8"/><path d="M441.73.73c6.92,0,11.72,5.09,11.72,12.15S448.65,25,441.73,25,430,19.94,430,12.88,434.81.73,441.73.73M430.85,34.49H452.6v76H430.85Z" style="fill:#0071b8"/><path d="M460.8,34.49h21.75V45.65c5.37-7.63,13.7-11.86,24-11.86,21.33,0,35.74,15.68,35.74,39.12,0,23-14,38.43-35.31,38.43-10.6,0-18.93-4.24-24.44-11.87v38.42H460.8Zm40.68,58.77c11.16,0,18.78-8.62,18.78-21.05,0-12.15-7.62-20.91-18.78-20.91s-18.93,8.62-18.93,20.91c0,12.57,7.77,21.05,18.93,21.05" style="fill:#0071b8"/><polygon points="557.32 11.61 584.3 86.19 611.43 11.61 634.45 11.61 595.18 110.49 572.16 110.49 533.31 11.61 557.32 11.61" style="fill:#253977"/><path d="M655.92,64.86h20.91V63.45c0-8.05-5.37-12.71-15.82-12.71-6.78,0-14.69,2.26-22.6,6.64l-6.79-15c11.31-5.65,21-8.76,34.33-8.76,20.34,0,32.07,10.18,32.21,27.27l.14,49.58H677v-8.9c-5.09,6.36-13.28,9.89-23.87,9.89-16.25,0-26.14-9.89-26.14-23.73,0-14.27,10.31-22.75,29-22.89m3.25,31.08c9.18,0,16.39-4.94,17.66-11.44V77.72H659.74c-8.34,0-12.44,2.54-12.44,8.61,0,5.8,4.53,9.61,11.87,9.61" style="fill:#253977"/><rect x="706.49" y="5.67" width="21.76" height="104.81" style="fill:#253977"/><path d="M773.44,33.79c26.7,0,39.13,17.65,37.3,45.34H756.21c2.55,9.6,9.89,15.25,19.64,15.25a27,27,0,0,0,19.21-8L806.5,97.92c-7.63,8.47-18.79,13.42-32.49,13.42-24.3,0-39.69-15.54-39.69-38.57,0-23.45,16-39,39.12-39m17,32.49c-.29-10-6.79-16.53-16.81-16.53-9.61,0-16.11,6.5-17.8,16.53Z" style="fill:#253977"/><path d="M814.12,37.88h10.6V17h21.61v20.9H867V53H846.33V84.36c0,6.35,2.68,8.9,7.35,8.75,2.82,0,6.21-1,10.17-2.82l4.52,16a40.45,40.45,0,0,1-19.78,5.23c-13.56,0-23.87-7.77-23.87-23.45V52.86h-10.6Z" style="fill:#253977"/><polygon points="868.87 18.88 886.8 18.88 886.8 23.71 880.87 23.71 880.87 39.28 874.78 39.28 874.78 23.71 868.87 23.71 868.87 18.88" style="fill:#253977"/><polygon points="888.7 18.88 895.18 18.88 900.1 30.17 905.02 18.88 911.51 18.88 911.51 39.28 906.22 39.28 906.19 27.2 902.08 37.27 898.13 37.27 894.02 27.2 894.02 39.28 888.7 39.28 888.7 18.88" style="fill:#253977"/><path d="M294.66,138.54h14.5v86h-14.5Z" style="fill:#253977"/><path d="M327.84,159.19H342v12.53c4.67-9.09,13-13,24.09-13,15.23,0,24.33,9.58,24.33,25.19v40.68H376.27V187.82c0-9.83-5.9-15.85-15.73-15.85-10.82.12-17.58,7.62-18.56,17.82v34.78H327.84Z" style="fill:#253977"/><path d="M433.05,158.7c11.8,0,21,3.81,27,10.69l-7.74,9.09a24.72,24.72,0,0,0-18.68-7.37c-11.31,0-19.42,8.48-19.42,20.89s8.11,20.89,19.42,20.89c8.23,0,14.87-2.7,19.29-7.86l7.87,7.86c-5.9,7.75-15.36,12.17-27.78,12.17-19.41,0-32.93-13.39-32.93-33.06S413.64,158.7,433.05,158.7Z" style="fill:#253977"/><path d="M496.85,158.7c23,0,32.32,15,30.6,38.59H478c2.22,10.08,10,16.34,20.28,16.34A25.42,25.42,0,0,0,516.76,206l7.5,8c-6.4,7-15.74,11.06-27,11.06-20.16,0-33.43-13.39-33.43-33.06S477.43,158.82,496.85,158.7ZM515.16,187c-.49-10.57-7.5-17-18.19-17-10.32,0-17.57,6.52-19.17,17Z" style="fill:#253977"/><path d="M539.13,159.19h14.14v12.53c4.67-9.09,13-13,24.09-13,15.24,0,24.33,9.58,24.33,25.19v40.68H587.56V187.82c0-9.83-5.9-15.85-15.74-15.85-10.81.12-17.57,7.62-18.55,17.82v34.78H539.13Z" style="fill:#253977"/><path d="M610.92,161.65h9.21v-18h14v18h19.3v10.56h-19.3v31.35c0,6.75,2.59,8.84,7,8.84,3,0,6-1,9.83-2.82l3.57,10.81a31.43,31.43,0,0,1-16.1,4.8c-9.84,0-18.32-5.66-18.32-19.05V172.21h-9.21Z" style="fill:#253977"/><path d="M671.51,131.9c4.67,0,8.24,3.57,8.24,8.61a8.24,8.24,0,1,1-16.47,0C663.28,135.47,666.84,131.9,671.51,131.9Zm-7,27.29h14v65.38h-14Z" style="fill:#253977"/><path d="M700.76,159.19,719,210.68l17.95-51.49H751L726,224.57H711.34L686,159.19Z" style="fill:#253977"/><path d="M782.26,158.7c23,0,32.32,15,30.6,38.59H763.45c2.22,10.08,10,16.34,20.28,16.34A25.42,25.42,0,0,0,802.17,206l7.49,8c-6.39,7-15.73,11.06-27,11.06-20.16,0-33.43-13.39-33.43-33.06S762.84,158.82,782.26,158.7ZM800.57,187c-.49-10.57-7.5-17-18.19-17-10.33,0-17.58,6.52-19.17,17Z" style="fill:#253977"/><path d="M821.72,205.89c5.65,5,14.75,8.11,21.87,8.11,6,0,10.7-2.09,10.7-7,0-13.39-34.42-5.89-34.29-29.49,0-13.27,11.55-18.93,24.09-18.93,8.23,0,17,2.46,22.85,6.64l-5.16,10.45c-5.77-3.57-13-5.78-18.8-5.78-5.53,0-9.59,1.84-9.59,6.51,0,12.05,34.78,5.53,34.66,29.25,0,13.4-11.92,19.42-25.07,19.42-9.59,0-19.79-3.19-26.3-9.09Z" style="fill:#253977"/><path d="M111.22,187.59c-12.63-40.4-2-64.09,14.58-101-9.18,39.35-9.79,65.77,6.16,101Z" style="fill:#253876"/><path d="M182.27,126.61a66.26,66.26,0,0,0-4.68-11,59.12,59.12,0,0,0-37.86-28.7A66.12,66.12,0,0,0,127.9,85.4s1.22-.71,3.49-1.71a47.17,47.17,0,0,1,9.7-3,40.27,40.27,0,0,1,14-.32,32.17,32.17,0,0,1,24.7,18.73,40.25,40.25,0,0,1,3.48,13.56,47.19,47.19,0,0,1-.3,10.16C182.63,125.24,182.26,126.6,182.27,126.61Z" style="fill:#253876"/><path d="M125.24,83.79a59.07,59.07,0,0,0-11-2.26A50.18,50.18,0,0,0,73.38,96.66a59.14,59.14,0,0,0-6.85,8.85s0-1.4.3-3.81A47.3,47.3,0,0,1,69,92.06,37.67,37.67,0,0,1,75.45,80.4a27.37,27.37,0,0,1,26.67-9.87,37.57,37.57,0,0,1,12.46,4.68,47.13,47.13,0,0,1,8,5.88C124.32,82.73,125.22,83.78,125.24,83.79Z" style="fill:#253876"/><path d="M125.9,81.44a50.59,50.59,0,0,0-6.78-6.21,45.93,45.93,0,0,0-35.76-8.17,51.29,51.29,0,0,0-8.8,2.64s.63-.88,1.91-2.29a35.55,35.55,0,0,1,5.85-5.17,30.92,30.92,0,0,1,9.74-4.63,25,25,0,0,1,23.33,5.33,31.11,31.11,0,0,1,6.76,8.4,36.35,36.35,0,0,1,3,7.2C125.72,80.37,125.89,81.43,125.9,81.44Z" style="fill:#253876"/><path d="M184.55,87.77a56.26,56.26,0,0,0-8-5.45,52.37,52.37,0,0,0-39-4.35,55.86,55.86,0,0,0-9,3.57s.56-1,1.73-2.49a36.45,36.45,0,0,1,5.55-5.76,32.82,32.82,0,0,1,9.74-5.64A28.39,28.39,0,0,1,171,70.48a33.08,33.08,0,0,1,8.27,7.64A36.84,36.84,0,0,1,183.41,85C184.22,86.73,184.54,87.77,184.55,87.77Z" style="fill:#253876"/><path d="M126.73,81a47,47,0,0,0-1.68-7.27A32.56,32.56,0,0,0,116.47,61a25.88,25.88,0,0,0-13-6.83c-4.16-.86-7.26-1.5-7.19-1.57s.81-.38,2.29-.88a30,30,0,0,1,6.23-1.38,24.56,24.56,0,0,1,8.67.53,18.88,18.88,0,0,1,13.81,12.93,24.8,24.8,0,0,1,1.1,8.62,30.23,30.23,0,0,1-1,6.31C127.06,80.19,126.72,81,126.73,81Z" style="fill:#253876"/><path d="M170.57,68.08a46,46,0,0,0-6.68-3,31.08,31.08,0,0,0-15-.73,24.55,24.55,0,0,0-12.78,6.31c-3,2.83-6.66,7.16-6.68,7.06s.17-.88.62-2.36a66.48,66.48,0,0,1,3.8-8.05,24.53,24.53,0,0,1,5.38-6.64,18,18,0,0,1,18.07-3.37,24.3,24.3,0,0,1,7.42,4.25,30.88,30.88,0,0,1,4.4,4.54C170.1,67.32,170.56,68.08,170.57,68.08Z" style="fill:#253876"/><polygon points="270.08 153.27 278.92 100.51 228.8 119.22 260.44 123.7 270.08 153.27" style="fill:#0071b8"/><polygon points="270.08 153.27 278.92 100.51 228.8 119.22 260.44 123.7 270.08 153.27" style="fill:none"/><path d="M3.55,154.46a238.1,238.1,0,0,0,15.94,20.11c18.92,21.3,49.71,47.24,89,49.79C160.27,227.73,214,190.71,268.3,114.29a425,425,0,0,1-46.5,38c-32.9,23.06-82.59,49.77-132.52,46C56.93,195.9,28.2,181.18,3.55,154.46Z" style="fill:#0071b8"/><path d="M241.49,111l1.56-.59c-.34-3.65-.85-7.3-1.54-10.91a120.2,120.2,0,0,0-6.26-21.79,122.85,122.85,0,0,0-24.18-38.5,127.26,127.26,0,0,0-17.18-15.41,118.18,118.18,0,0,0-20-12A121.8,121.8,0,0,0,80.63,7.06,125,125,0,0,0,58.52,17.65a117.31,117.31,0,0,0-19.73,14.9A121.85,121.85,0,0,0,2.57,97,128.06,128.06,0,0,0,0,122a129.63,129.63,0,0,0,2.58,25c.09.46.2.93.31,1.39a149,149,0,0,0,21.94,19.5c-.38-.86-.78-1.71-1.13-2.57A113.45,113.45,0,1,1,241.49,111Z" style="fill:#253977"/></svg>