<svg id="6caec6a8-18a0-4580-9446-fde9fd37c137" data-name="Layer 1" xmlns="http://www.w3.org/2000/svg" viewBox="0 0 907.54 224.2"><title>TVI-TM-Logo-Horizontal-White</title><polygon points="291.14 11.56 373.42 11.56 373.42 30.4 343.32 30.4 343.32 110.01 321.1 110.01 321.1 30.4 291.14 30.4 291.14 11.56" style="fill:#fff"/><path d="M374.69,34.34h21.66V48c5.2-9.28,13.78-14.34,25-14.48V53.89c-15.47-1.41-25,6.89-25,19.69V110H374.69Z" style="fill:#fff"/><path d="M439.8.73c6.89,0,11.68,5.06,11.68,12.09s-4.79,12.1-11.68,12.1-11.67-5.07-11.67-12.1S432.91.73,439.8.73M429,34.34h21.66V110H429Z" style="fill:#fff"/><path d="M458.79,34.34h21.66V45.45c5.34-7.59,13.64-11.81,23.9-11.81,21.24,0,35.59,15.61,35.59,39,0,22.92-13.93,38.25-35.16,38.25-10.55,0-18.85-4.22-24.33-11.81v38.25H458.79Zm40.5,58.51c11.11,0,18.71-8.58,18.71-21,0-12.09-7.6-20.81-18.71-20.81s-18.84,8.58-18.84,20.81c0,12.52,7.73,21,18.84,21" style="fill:#fff"/><polygon points="554.89 11.56 581.76 85.82 608.76 11.56 631.68 11.56 592.59 110.01 569.66 110.01 530.99 11.56 554.89 11.56" style="fill:#fff"/><path d="M653.06,64.58h20.82V63.17c0-8-5.35-12.65-15.76-12.65-6.74,0-14.62,2.25-22.5,6.61l-6.75-14.91c11.25-5.63,21-8.72,34.18-8.72,20.25,0,31.92,10.12,32.06,27.14l.15,49.37H674v-8.86C669,107.48,660.8,111,650.25,111c-16.17,0-26-9.84-26-23.63,0-14.2,10.27-22.64,28.83-22.78m3.24,30.94c9.14,0,16.31-4.92,17.58-11.39V77.38h-17c-8.3,0-12.38,2.53-12.38,8.58,0,5.76,4.5,9.56,11.82,9.56" style="fill:#fff"/><rect x="703.41" y="5.65" width="21.66" height="104.36" style="fill:#fff"/><path d="M770.07,33.64c26.58,0,39,17.58,37.13,45.14H752.91C755.45,88.35,762.76,94,772.46,94a26.82,26.82,0,0,0,19.13-8L803,97.49c-7.59,8.44-18.7,13.36-32.34,13.36-24.2,0-39.53-15.47-39.53-38.39,0-23.35,15.9-38.82,39-38.82M787,66c-.28-10-6.75-16.46-16.74-16.46-9.56,0-16,6.47-17.72,16.46Z" style="fill:#fff"/><path d="M810.57,37.72h10.55V16.9h21.52V37.72h20.53V52.77H842.64V84c0,6.33,2.67,8.86,7.32,8.72,2.81,0,6.18-1,10.12-2.81l4.5,15.89a40.3,40.3,0,0,1-19.69,5.2c-13.5,0-23.77-7.73-23.77-23.34v-35H810.57Z" style="fill:#fff"/><polygon points="865.09 18.79 882.94 18.79 882.94 23.6 877.02 23.6 877.02 39.11 870.97 39.11 870.97 23.6 865.09 23.6 865.09 18.79" style="fill:#fff"/><polygon points="884.82 18.79 891.28 18.79 896.18 30.04 901.08 18.79 907.54 18.79 907.54 39.11 902.26 39.11 902.24 27.08 898.15 37.11 894.21 37.11 890.12 27.08 890.12 39.11 884.82 39.11 884.82 18.79" style="fill:#fff"/><path d="M293.37,137.94h14.44v85.65H293.37Z" style="fill:#fff"/><path d="M326.41,158.49h14.08V171c4.65-9.06,13-13,24-13,15.17,0,24.23,9.55,24.23,25.09v40.5H374.63V187c0-9.79-5.88-15.79-15.67-15.79-10.76.12-17.49,7.59-18.47,17.74v34.63H326.41Z" style="fill:#fff"/><path d="M431.17,158c11.74,0,20.92,3.8,26.92,10.65l-7.71,9a24.64,24.64,0,0,0-18.6-7.34c-11.26,0-19.33,8.45-19.33,20.81s8.07,20.8,19.33,20.8c8.2,0,14.8-2.69,19.21-7.84l7.83,7.84c-5.87,7.71-15.29,12.11-27.65,12.11-19.34,0-32.8-13.34-32.8-32.91S411.83,158,431.17,158Z" style="fill:#fff"/><path d="M494.68,158c22.88,0,32.18,14.93,30.47,38.43H476c2.2,10,9.91,16.27,20.19,16.27a25.31,25.31,0,0,0,18.36-7.59l7.46,8c-6.36,7-15.66,11-26.92,11-20.07,0-33.28-13.34-33.28-32.91S475.35,158.13,494.68,158Zm18.24,28.15c-.49-10.53-7.47-16.89-18.11-16.89-10.28,0-17.5,6.49-19.09,16.89Z" style="fill:#fff"/><path d="M536.78,158.49h14.08V171c4.65-9.06,13-13,24-13,15.17,0,24.23,9.55,24.23,25.09v40.5H585V187c0-9.79-5.87-15.79-15.66-15.79-10.77.12-17.49,7.59-18.47,17.74v34.63H536.78Z" style="fill:#fff"/><path d="M608.25,160.94h9.18V143.08h14v17.86h19.21v10.52H631.38v31.21c0,6.73,2.57,8.81,7,8.81,2.93,0,6-1,9.78-2.82l3.55,10.77a31.24,31.24,0,0,1-16,4.77c-9.79,0-18.23-5.63-18.23-19V171.46h-9.18Z" style="fill:#fff"/><path d="M668.59,131.33c4.65,0,8.19,3.55,8.19,8.56a8.2,8.2,0,1,1-16.39,0C660.39,134.88,663.94,131.33,668.59,131.33Zm-7,27.16h13.95v65.1H661.61Z" style="fill:#fff"/><path d="M697.71,158.49l18.11,51.28,17.87-51.28h14.07l-25,65.1H708.23L683,158.49Z" style="fill:#fff"/><path d="M778.85,158c22.88,0,32.18,14.93,30.46,38.43H760.12c2.21,10,9.92,16.27,20.19,16.27a25.29,25.29,0,0,0,18.36-7.59l7.46,8c-6.36,7-15.66,11-26.92,11-20.06,0-33.28-13.34-33.28-32.91S759.51,158.13,778.85,158Zm18.23,28.15c-.49-10.53-7.47-16.89-18.11-16.89-10.28,0-17.5,6.49-19.09,16.89Z" style="fill:#fff"/><path d="M818.14,205c5.62,5,14.68,8.08,21.78,8.08,6,0,10.64-2.08,10.64-7,0-13.33-34.26-5.87-34.14-29.36,0-13.22,11.5-18.85,24-18.85,8.19,0,16.88,2.45,22.75,6.61L858,174.89c-5.76-3.55-13-5.75-18.73-5.75-5.5,0-9.54,1.84-9.54,6.48,0,12,34.63,5.51,34.51,29.13,0,13.33-11.87,19.33-25,19.33-9.54,0-19.7-3.18-26.18-9.05Z" style="fill:#fff"/><path d="M110.73,186.77c-12.57-40.22-2-63.81,14.53-100.59-9.15,39.18-9.76,65.49,6.13,100.59C113.13,186.76,120.88,186.77,110.73,186.77Z" style="fill:#fff"/><path d="M181.47,126.06a64.7,64.7,0,0,0-4.65-10.93,58.83,58.83,0,0,0-37.7-28.57A66,66,0,0,0,127.34,85s1.21-.71,3.48-1.7a46.23,46.23,0,0,1,9.65-3A40.17,40.17,0,0,1,154.41,80,32,32,0,0,1,179,98.64a39.92,39.92,0,0,1,3.47,13.5,46.7,46.7,0,0,1-.3,10.11A37,37,0,0,1,181.47,126.06Z" style="fill:#fff"/><path d="M124.69,83.42a59.44,59.44,0,0,0-10.92-2.24A49.91,49.91,0,0,0,73.06,96.24a58.44,58.44,0,0,0-6.82,8.81s0-1.39.3-3.8a46.68,46.68,0,0,1,2.19-9.59,37.66,37.66,0,0,1,6.39-11.61,27.27,27.27,0,0,1,26.55-9.83,37.4,37.4,0,0,1,12.41,4.66A46.49,46.49,0,0,1,122,80.74C123.78,82.37,124.68,83.42,124.69,83.42Z" style="fill:#fff"/><path d="M125.35,81.08a50.92,50.92,0,0,0-6.75-6.18A45.64,45.64,0,0,0,83,66.77a51,51,0,0,0-8.77,2.63s.63-.88,1.91-2.28A34.72,34.72,0,0,1,82,62a30.77,30.77,0,0,1,9.7-4.61,24.83,24.83,0,0,1,23.22,5.31A30.73,30.73,0,0,1,121.62,71a35.46,35.46,0,0,1,3,7.17C125.17,80,125.34,81.07,125.35,81.08Z" style="fill:#fff"/><path d="M183.75,87.39a55.93,55.93,0,0,0-8-5.43,52.05,52.05,0,0,0-38.85-4.33,55.86,55.86,0,0,0-9,3.55s.55-.94,1.73-2.47A35.19,35.19,0,0,1,135.21,73a32.54,32.54,0,0,1,9.7-5.61,28.26,28.26,0,0,1,25.34,2.82,32.4,32.4,0,0,1,8.23,7.6,36.08,36.08,0,0,1,4.13,6.82C183.41,86.35,183.73,87.38,183.75,87.39Z" style="fill:#fff"/><path d="M126.18,80.67a46.28,46.28,0,0,0-1.68-7.24A32.36,32.36,0,0,0,116,60.68a25.71,25.71,0,0,0-12.89-6.79c-4.15-.86-7.23-1.5-7.16-1.57s.81-.38,2.28-.88a29.86,29.86,0,0,1,6.2-1.37,24.63,24.63,0,0,1,8.64.52,18.85,18.85,0,0,1,13.75,12.88,24.85,24.85,0,0,1,1.09,8.59,29.14,29.14,0,0,1-1,6.27C126.5,79.84,126.17,80.66,126.18,80.67Z" style="fill:#fff"/><path d="M169.82,67.78a44.71,44.71,0,0,0-6.65-3,30.79,30.79,0,0,0-14.91-.73,24.45,24.45,0,0,0-12.72,6.29c-3,2.81-6.64,7.12-6.65,7s.16-.87.61-2.35a66,66,0,0,1,3.79-8,24.14,24.14,0,0,1,5.35-6.61,17.88,17.88,0,0,1,18-3.36A24,24,0,0,1,164,61.3a29.17,29.17,0,0,1,4.38,4.51C169.36,67,169.81,67.78,169.82,67.78Z" style="fill:#fff"/><polygon points="268.9 152.6 277.7 100.07 227.81 118.7 259.31 123.16 268.9 152.6" style="fill:#fff"/><polygon points="268.9 152.6 277.7 100.07 227.81 118.7 259.31 123.16 268.9 152.6" style="fill:#fff"/><path d="M3.54,153.79a234,234,0,0,0,15.87,20C38.24,195,68.9,220.84,108,223.38c51.6,3.36,105.09-33.5,159.17-109.59a424.22,424.22,0,0,1-46.31,37.84c-32.75,23-82.23,49.55-131.94,45.83C56.68,195.05,28.07,180.39,3.54,153.79Z" style="fill:#fff"/><path d="M240.44,110.49l1.55-.58c-.34-3.64-.85-7.27-1.54-10.86a118.41,118.41,0,0,0-6.23-21.7A122.06,122.06,0,0,0,210.15,39a127.44,127.44,0,0,0-17.1-15.35,118.23,118.23,0,0,0-19.92-11.89A121.26,121.26,0,0,0,80.28,7a124,124,0,0,0-22,10.55A118.06,118.06,0,0,0,38.62,32.4,121.42,121.42,0,0,0,2.56,96.6,127.7,127.7,0,0,0,0,121.48a128.49,128.49,0,0,0,2.57,24.88c.09.46.2.92.3,1.39a149.28,149.28,0,0,0,21.85,19.41c-.38-.85-.77-1.7-1.13-2.56a113,113,0,1,1,216.85-54.11Z" style="fill:#fff"/></svg>