<svg id="af6e3bf5-e083-4e94-98e6-4a3f42c4f856" data-name="Layer 1" xmlns="http://www.w3.org/2000/svg" viewBox="0 0 1279.74 278.4"><title>TV-Logo-DarkIcon-WhiteText</title><path d="M296.91,50.73h141V83H386.34V219.47H348.25V83H296.91Z" style="fill:#fff"/><path d="M440.09,89.78h37.12v23.38c8.92-15.91,23.63-24.59,42.91-24.83v35c-26.51-2.41-42.91,11.81-42.91,33.74v62.44H440.09Z" style="fill:#fff"/><path d="M551.7,32.17c11.81,0,20,8.67,20,20.73s-8.19,20.73-20,20.73-20-8.68-20-20.73S539.88,32.17,551.7,32.17ZM533.13,89.78h37.13V219.47H533.13Z" style="fill:#fff"/><path d="M584.23,89.78h37.13v19c9.16-13,23.38-20.25,41-20.25,36.4,0,61,26.76,61,66.78,0,39.29-23.86,65.56-60.26,65.56-18.08,0-32.3-7.23-41.7-20.24v65.56H584.23Zm69.43,100.28c19,0,32.06-14.71,32.06-35.92,0-20.73-13-35.67-32.06-35.67s-32.3,14.7-32.3,35.67C621.36,175.6,634.62,190.06,653.66,190.06Z" style="fill:#fff"/><path d="M749,50.73,795,178,841.28,50.73h39.29l-67,168.74H774.27L708,50.73Z" style="fill:#fff"/><path d="M917.21,141.61h35.68V139.2c0-13.74-9.16-21.7-27-21.7-11.57,0-25.07,3.86-38.57,11.33l-11.57-25.55c19.28-9.64,35.92-15,58.58-15,34.71,0,54.72,17.36,55,46.53l.24,84.61h-36.4V204.28c-8.68,10.85-22.66,16.88-40.74,16.88-27.72,0-44.6-16.88-44.6-40.5C867.79,156.31,885.39,141.85,917.21,141.61Zm5.54,53c15.67,0,28-8.44,30.14-19.53V163.54H923.72c-14.22,0-21.21,4.34-21.21,14.71C902.51,188.13,910.22,194.64,922.75,194.64Z" style="fill:#fff"/><path d="M1003.5,40.6h37.13V219.47H1003.5Z" style="fill:#fff"/><path d="M1117.76,88.57c45.56,0,66.78,30.14,63.64,77.38h-93.05c4.34,16.4,16.88,26,33.51,26a46,46,0,0,0,32.78-13.74L1174.17,198c-13,14.47-32.06,22.9-55.44,22.9-41.47,0-67.74-26.51-67.74-65.8C1051,115.09,1078.23,88.57,1117.76,88.57ZM1146.69,144c-.48-17.12-11.57-28.21-28.69-28.21-16.39,0-27.48,11.09-30.37,28.21Z" style="fill:#fff"/><path d="M1187.18,95.57h18.08V59.89h36.88V95.57h35.19v25.79h-35.19v53.51c0,10.85,4.58,15.19,12.54,14.95,4.82,0,10.6-1.69,17.35-4.82l7.71,27.24a69.08,69.08,0,0,1-33.74,8.92c-23.14,0-40.74-13.26-40.74-40v-60h-18.08Z" style="fill:#fff"/><rect x="2.5" y="2.5" width="273.4" height="273.4" rx="25.42" ry="25.42" style="fill:#123377;stroke:#fff;stroke-miterlimit:10;stroke-width:5px"/><path d="M113.7,250.15c-19.32-61.79-3.07-98,22.3-154.51-14,60.18-15,100.59,9.42,154.51C117.37,250.13,129.28,250.15,113.7,250.15Z" style="fill:#fff"/><path d="M222.36,158.84a101.18,101.18,0,0,0-7.16-16.78,90.34,90.34,0,0,0-57.9-43.89,101.13,101.13,0,0,0-18.1-2.36s1.87-1.09,5.35-2.61a71.62,71.62,0,0,1,14.83-4.64,61.65,61.65,0,0,1,21.41-.48,49.23,49.23,0,0,1,37.78,28.64,61.53,61.53,0,0,1,5.32,20.74,71.7,71.7,0,0,1-.46,15.53C222.91,156.75,222.35,158.82,222.36,158.84Z" style="fill:#fff"/><path d="M135.14,93.34a91.5,91.5,0,0,0-16.77-3.44A76.71,76.71,0,0,0,55.83,113a92.29,92.29,0,0,0-10.49,13.53s0-2.14.47-5.83A71.62,71.62,0,0,1,49.18,106,57.37,57.37,0,0,1,59,88.17a41.88,41.88,0,0,1,40.79-15.1,57.62,57.62,0,0,1,19.06,7.16,72.06,72.06,0,0,1,12.15,9C133.73,91.74,135.11,93.34,135.14,93.34Z" style="fill:#fff"/><path d="M136.15,89.75a78,78,0,0,0-10.37-9.49,67.73,67.73,0,0,0-26-12,67.64,67.64,0,0,0-28.64-.55,77.59,77.59,0,0,0-13.47,4,43.91,43.91,0,0,1,2.92-3.51,54.94,54.94,0,0,1,9-7.91,47.28,47.28,0,0,1,14.9-7.07,38.15,38.15,0,0,1,35.67,8.15,47.35,47.35,0,0,1,10.35,12.84,55.16,55.16,0,0,1,4.62,11C135.87,88.12,136.14,89.74,136.15,89.75Z" style="fill:#fff"/><path d="M225.85,99.45a84,84,0,0,0-12.24-8.35,80,80,0,0,0-59.67-6.64,84.47,84.47,0,0,0-13.78,5.45,45.59,45.59,0,0,1,2.65-3.8,54.45,54.45,0,0,1,8.48-8.82,50.5,50.5,0,0,1,14.9-8.62A43.37,43.37,0,0,1,205.12,73a50.33,50.33,0,0,1,12.65,11.69,54.48,54.48,0,0,1,6.33,10.47A45.79,45.79,0,0,1,225.85,99.45Z" style="fill:#fff"/><path d="M137.42,89.11A71.13,71.13,0,0,0,134.85,78a49.9,49.9,0,0,0-13.13-19.57A39.44,39.44,0,0,0,101.92,48c-6.37-1.32-11.1-2.3-11-2.41s1.24-.58,3.5-1.35A46,46,0,0,1,104,42.11a37.85,37.85,0,0,1,13.26.81A28.93,28.93,0,0,1,138.34,62.7,38,38,0,0,1,140,75.89a45.21,45.21,0,0,1-1.49,9.64C137.92,87.84,137.41,89.1,137.42,89.11Z" style="fill:#fff"/><path d="M204.46,69.32a68.16,68.16,0,0,0-10.22-4.56,47.35,47.35,0,0,0-22.9-1.13,37.64,37.64,0,0,0-19.54,9.66c-4.68,4.33-10.19,10.95-10.21,10.79s.25-1.34.94-3.61a100.75,100.75,0,0,1,5.81-12.3A37.3,37.3,0,0,1,156.57,58a27.44,27.44,0,0,1,27.64-5.16,37.06,37.06,0,0,1,11.33,6.51,45.27,45.27,0,0,1,6.74,6.93C203.75,68.16,204.45,69.32,204.46,69.32Z" style="fill:#fff"/></svg>